<?xml version="1.0" encoding="iso-8859-1"?>
<!-- Generator: Adobe Illustrator 18.1.1, SVG Export Plug-In . SVG Version: 6.00 Build 0)  -->
<svg version="1.1" id="Capa_1" xmlns="http://www.w3.org/2000/svg" xmlns:xlink="http://www.w3.org/1999/xlink" x="0px" y="0px"
	 viewBox="-49 141 512 512" style="enable-background:new -49 141 512 512;" xml:space="preserve">
<path style="fill:#FFE17D;" d="M200.611,172.296L-1.94,270.078c-2.539,1.226-4.153,3.798-4.153,6.617v240.608
	c0,2.82,1.614,5.391,4.153,6.617l202.551,97.783c4.037,1.949,8.741,1.949,12.778,0l202.551-97.783
	c2.539-1.226,4.153-3.798,4.153-6.617V276.695c0-2.82-1.614-5.391-4.153-6.617l-202.551-97.782
	C209.352,170.347,204.648,170.347,200.611,172.296z"/>
<path style="fill:#FFC350;" d="M-4.871,272.673c-0.773,1.176-1.222,2.56-1.222,4.022v240.608c0,2.821,1.614,5.391,4.153,6.617
	l202.551,97.783c2.018,0.974,4.204,1.462,6.389,1.462v-248.21L-4.871,272.673z"/>
<path style="fill:#FFD164;" d="M418.871,272.673c0.773,1.176,1.222,2.56,1.222,4.022v240.608c0,2.821-1.614,5.391-4.153,6.617
	l-202.551,97.783c-2.018,0.974-4.204,1.462-6.389,1.462v-248.21L418.871,272.673z"/>
<polygon style="fill:#FF8087;" points="347.071,307.216 134.456,204.503 78.41,231.669 291.502,334.542 "/>
<path style="fill:#E6646E;" d="M291.502,334.542V368.4c0,2.709,2.832,4.486,5.272,3.308l46.144-22.277
	c2.54-1.226,4.153-3.798,4.153-6.617v-35.599L291.502,334.542z"/>
<path d="M423.082,265.892L209.989,163.02c-1.889-0.911-4.089-0.911-5.978,0L-9.082,265.892c-2.376,1.147-3.886,3.553-3.886,6.191
	v249.834c0,2.638,1.51,5.044,3.886,6.191L204.011,630.98c0.944,0.456,1.967,0.684,2.989,0.684c1.022,0,2.044-0.228,2.989-0.684
	l213.093-102.873c2.376-1.147,3.886-3.553,3.886-6.191V272.084C426.968,269.445,425.457,267.039,423.082,265.892z M207,176.845
	l197.28,95.238l-57.187,27.608c-0.362-0.276-0.744-0.531-1.164-0.733l-195.94-94.59L207,176.845z M134.462,212.141l196.993,95.099
	l-40.347,19.478L94.197,231.657L134.462,212.141z M298.378,338.477l37.686-18.194v26.164l-37.686,18.194V338.477z M213.875,613.836
	V379.271l47.55-22.955c3.419-1.651,4.853-5.76,3.202-9.18c-1.651-3.418-5.76-4.854-9.18-3.202L207,367.322l-19.063-9.203
	c-3.42-1.653-7.529-0.217-9.18,3.202c-1.651,3.419-0.217,7.529,3.202,9.18l18.166,8.77v234.565L0.782,517.602V283.036
	l151.798,73.282c0.963,0.466,1.982,0.686,2.984,0.686c2.556,0,5.01-1.432,6.196-3.888c1.651-3.419,0.217-7.529-3.202-9.18
	L9.72,272.083l68.295-32.97l206.517,99.698c0.03,0.042,0.064,0.08,0.095,0.121v36.662c0,2.366,1.216,4.565,3.22,5.824
	c1.113,0.698,2.382,1.051,3.656,1.051c1.019,0,2.041-0.226,2.988-0.684l51.436-24.831c2.376-1.147,3.886-3.552,3.886-6.191v-37.117
	l63.404-30.609v234.566L213.875,613.836z"/>
<path d="M57.517,490.939l-31.272-15.096c-3.421-1.653-7.529-0.217-9.18,3.202c-1.651,3.419-0.217,7.529,3.202,9.18l31.272,15.096
	c0.963,0.466,1.982,0.686,2.984,0.686c2.556,0,5.01-1.432,6.196-3.888C62.37,496.699,60.936,492.59,57.517,490.939z"/>
<path d="M86.298,472.204l-60.009-28.97c-3.42-1.651-7.529-0.217-9.18,3.203c-1.65,3.419-0.216,7.529,3.203,9.18l60.009,28.97
	c0.963,0.465,1.982,0.686,2.984,0.686c2.556,0,5.01-1.432,6.196-3.888C91.15,477.965,89.717,473.855,86.298,472.204z"/>
<g>
	<path d="M277.26,450.892c0-5.929,1.708-12.502,5.127-19.719c3.418-7.217,8.405-13.908,14.962-20.073
		c6.556-6.164,14.205-10.694,22.947-13.588c8.124-2.689,15.297-3.393,21.518-2.114c6.219,1.281,11.024,4.232,14.415,8.851
		c3.39,4.621,5.086,10.3,5.086,17.041c0,5.306-0.967,10.277-2.9,14.91c-1.934,4.635-4.232,8.843-6.893,12.627
		c-2.662,3.783-7.438,10.248-14.331,19.396c-1.905,2.566-3.432,4.773-4.581,6.619c-1.149,1.847-2.004,3.472-2.564,4.874
		c-0.56,1.403-0.995,2.764-1.302,4.082c-0.308,1.319-0.771,3.611-1.387,6.873c-1.065,6.845-4.399,11.193-10.002,13.048
		c-2.914,0.965-5.366,0.716-7.354-0.749c-1.99-1.462-2.984-4.285-2.984-8.467c0-5.243,0.727-10.025,2.185-14.346
		c1.457-4.32,3.39-8.33,5.8-12.031c2.409-3.7,5.659-8.223,9.75-13.573c3.585-4.681,6.178-8.177,7.775-10.485
		c1.597-2.307,2.942-4.733,4.035-7.28c1.092-2.547,1.638-5.098,1.638-7.659c0-4.992-1.668-8.654-5.001-10.984
		c-3.335-2.327-7.636-2.621-12.902-0.878c-6.166,2.041-10.704,5.275-13.617,9.704c-2.915,4.428-5.379,10.347-7.397,17.755
		c-1.906,7.685-5.52,12.407-10.843,14.169c-3.139,1.039-5.786,0.683-7.943-1.069C278.338,456.075,277.26,453.764,277.26,450.892z
		 M318.278,539.927c-3.419,1.132-6.403,0.887-8.952-0.734c-2.551-1.621-3.824-4.648-3.824-9.08c0-3.933,1.231-7.648,3.697-11.149
		c2.466-3.499,5.491-5.843,9.079-7.031c3.53-1.168,6.499-0.808,8.909,1.077c2.408,1.887,3.614,4.796,3.614,8.728
		c0,4.369-1.261,8.22-3.782,11.55C324.497,536.619,321.583,538.833,318.278,539.927z"/>
</g>
</svg>
