<?xml version="1.0" encoding="iso-8859-1"?>
<!-- Generator: Adobe Illustrator 18.1.1, SVG Export Plug-In . SVG Version: 6.00 Build 0)  -->
<svg version="1.1" id="Capa_1" xmlns="http://www.w3.org/2000/svg" xmlns:xlink="http://www.w3.org/1999/xlink" x="0px" y="0px"
	 viewBox="-49 141 512 512" style="enable-background:new -49 141 512 512;" xml:space="preserve">
<g>
	<path style="fill:#9BE2FE;" d="M237.732,615.414c-1.692,0-3.383,0-5.075,0c-3.487-0.513-6.974-1.028-10.461-1.539
		c-0.46-0.068-1.081,0.053-1.167-0.584c-0.083-0.616,0.55-0.69,0.952-0.921c3.99-2.29,8.569-2.814,12.88-4.006
		c12.285-3.399,24.487-6.846,34.99-14.47c0.945-0.686,2.504-1.418,1.764-2.955c-0.735-1.526-2.319-1.051-3.559-0.686
		c-4.034,1.187-8.075,2.372-12.042,3.762c-7.545,2.644-15.238,4.673-23.049,6.38c-9.392,2.052-18.849,3.193-28.452,3.37
		c-18.228,0.337-36.417,0.031-54.335-3.801c-10.171-2.175-20.173-5.011-30.039-8.344c-10.123-3.42-19.858-7.698-29.074-13.059
		c-15.107-8.788-29.078-19.031-41.166-31.823c-10.071-10.657-18.22-22.602-25.304-35.325c-5.957-10.698-11.15-21.776-15.654-33.175
		c-3.682-9.32-6.831-18.847-9.028-28.581c-1.726-7.65-3.458-15.332-4.296-23.221c-1.076-10.123-2.569-20.238-2.416-30.4
		c0.173-11.477,0.731-22.95,2.226-34.399c1.217-9.318,2.555-18.621,4.468-27.78c2.718-13.011,6.297-25.852,10.332-38.528
		c3.777-11.866,7.608-23.735,13.907-34.617c3.533-6.104,6.6-12.538,11.44-17.738c10.394-11.166,22.214-20.698,34.696-29.423
		c12.296-8.594,25.317-15.858,39.208-21.587c10.81-4.458,21.634-8.686,33.336-10.333c10.928-1.538,21.906-2.401,32.904-2.94
		c12.271-0.601,24.379,1.568,36.502,2.987c10.725,1.255,21.552,2.174,31.93,5.536c10.89,3.528,21.516,7.779,31.845,12.66
		c14.499,6.851,27.633,16,40.483,25.505c10.091,7.465,19.235,16.024,28.027,24.997c9.14,9.328,17.498,19.284,25.155,29.829
		c10.287,14.167,19.589,28.95,27.593,44.549c6.183,12.051,12.725,23.92,17.263,36.745c3.897,11.013,5.641,22.477,6.088,34.02
		c0.493,12.755,0.102,25.521-1.116,38.303c-1.401,14.699-3.969,29.005-8.702,43.004c-3.842,11.364-8.805,22.178-14.837,32.479
		c-7.945,13.566-17.519,25.988-28.255,37.45c-10.281,10.976-21.539,20.907-33.626,29.888c-11.01,8.181-22.513,15.558-34.695,21.882
		c-6.9,3.582-13.771,7.374-21.166,9.668c-9.263,2.873-19.048,3.474-28.594,5.132C245.652,614.011,241.588,614.139,237.732,615.414z
		 M320.499,462.334c0.267,0.131,0.607,0.197,0.79,0.403c1.968,2.213,4.276,2.128,6.477,0.646c2.322-1.564,3.373-3.891,2.651-6.733
		c-0.875-3.449-4.008-4.474-8.568-2.873c-0.24-1.408,1.312-2.295,1.051-3.743c-0.199-1.103-0.743-1.925-1.727-2.339
		c-0.591-0.248-1.156,0.046-1.455,0.721c-0.535,1.207-1.155,2.378-1.667,3.595c-4.169,9.9-6.937,20.372-12.207,29.823
		c-0.337,0.604-0.483,1.297-0.035,1.884c0.479,0.629,1.186,0.468,1.834,0.271c1.439-0.438,2.921-1.111,4.395-0.536
		c2.824,1.102,4.365,0.263,5.291-2.627C319.259,474.796,321.779,468.9,320.499,462.334z M65.59,509.901
		c0.902,0.049,1.328,0.791,1.848,1.341c8.867,9.381,18.618,17.729,29.531,24.623c8.407,5.311,16.973,10.387,26.382,13.823
		c7.472,2.729,15.099,4.885,22.941,6.248c3.559,0.619,7.105,1.524,10.69,1.739c9.683,0.581,19.376,0.952,29.092,0.48
		c6.574-0.319,13.116-0.974,19.547-2.183c6.852-1.288,13.562-3.325,20.347-4.982c8.707-2.127,17.076-5.09,24.655-9.974
		c1.214-0.782,3.742-1.116,3.06-2.901c-0.722-1.89-3.147-1.08-4.735-0.712c-6.156,1.426-11.936,4.057-18.093,5.599
		c-9.622,2.409-19.287,4.209-29.216,4.269c-8.683,0.053-17.369,0.279-26.038-0.672c-8.988-0.985-17.899-2.489-26.623-4.753
		c-11.154-2.895-21.717-7.521-32.129-12.415c-11.062-5.199-20.786-12.363-29.801-20.581c-16.112-14.687-26.51-33.218-35.044-52.832
		c-5.159-11.857-8.74-24.309-11.158-37.112c-2.657-14.069-3.481-28.155-2.968-42.432c0.543-15.115,3.076-29.865,6.481-44.556
		c3.202-13.81,7.356-27.303,12.554-40.456c5.312-13.441,13.29-25.273,23.342-35.624c9.62-9.906,20.591-17.912,33.477-23.235
		c8.454-3.492,16.901-6.81,25.847-8.946c11.18-2.669,22.487-4.233,33.916-4.723c21.141-0.907,41.985,1.695,62.476,6.727
		c14.506,3.563,28.632,8.229,42.041,15.14c10.719,5.524,20.838,11.984,30.728,18.705c16.438,11.171,31.117,24.57,45.131,38.663
		c3.195,3.213,6.399,6.416,9.606,9.617c0.55,0.549,1.129,1.297,2.003,0.763c0.999-0.61,0.251-1.372-0.019-2.055
		c-1.216-3.075-3.186-5.69-5.324-8.134c-3.214-3.675-6.035-7.44-6.679-12.522c-0.6-4.738-3.356-8.315-6.974-11.251
		c-8.654-7.023-17.271-14.094-26.014-21.005c-19.937-15.762-40.45-30.638-63.992-40.747c-9.214-3.957-18.692-7.173-28.511-9.166
		c-13.488-2.737-27.154-2.687-40.866-2.312c-14.27,0.39-28.289,2.585-42.189,5.392c-12.13,2.45-24.124,5.71-35.517,10.715
		c-9.536,4.189-18.5,9.48-26.591,16.008c-11.406,9.203-21.301,19.936-29.654,31.987c-10.251,14.79-18.219,30.774-23.98,47.831
		c-3.641,10.781-6.811,21.675-8.855,32.913c-1.655,9.099-2.848,18.218-2.919,27.445c-0.132,17.293-0.697,34.59,3.095,51.703
		c1.357,6.123,2.767,12.24,4.742,18.137c2.016,6.018,5.115,11.673,7.745,17.484c6.438,14.222,15.365,26.844,24.987,39.034
		c2.516,3.188,5.799,5.782,7.518,9.593c-1.46-0.497-2.273-1.741-3.166-2.847c-3.557-4.406-7.061-8.856-10.604-13.274
		c-0.407-0.507-0.918-1.142-1.662-0.74c-0.682,0.368-0.357,1.015-0.174,1.603c1.604,5.144,5.377,8.92,8.452,13.098
		c1.763,2.396,3.096,4.826,3.669,7.709c0.811,4.086,2.015,8.139,5.18,10.948c11.609,10.306,23.48,20.296,35.948,29.581
		c8.845,6.587,17.67,13.174,27.017,19.042c8.534,5.358,17.479,9.926,26.423,14.555c9.98,5.164,20.803,7.405,31.399,10.447
		c6.809,1.955,13.921,1.703,20.977,1.604c5.56-0.078,11.022-0.539,16.532-1.434c11.522-1.871,22.663-5.047,33.631-8.878
		c4.315-1.507,8.577-2.71,13.186-2.445c1.258,0.072,2.069,0.673,2.596,1.662c0.561,1.052-0.099,1.84-0.856,2.514
		c-0.9,0.8-1.854,1.544-2.712,2.386c-0.673,0.661-0.764,1.448,0.45,1.366c2.264-0.154,4.561-0.073,6.774-0.78
		c3.313-1.059,6.585-2.382,9.982-3.022c9.603-1.809,18.384-5.839,26.95-10.173c12.121-6.133,22.447-14.748,32.03-24.41
		c12.489-12.591,22.226-27.028,30.504-42.582c3.442-6.467,5.483-13.507,8.443-20.149c4.668-10.475,7.344-21.537,9.872-32.578
		c2.005-8.756,2.435-17.854,2.764-26.89c0.215-5.932-0.922-11.747-1.073-17.621c-0.213-8.322-1.557-16.527-2.607-24.725
		c-1.109-8.662-2.587-17.32-4.258-25.932c-1.555-8.015-4.527-15.53-6.792-23.286c-1.974-6.761-6.164-12.472-9.428-18.631
		c-5.597-10.559-14.073-18.599-21.978-27.144c-4.529-4.895-9.664-9.244-14.654-13.696c-12.451-11.108-24.668-22.595-39.861-30
		c-5.655-2.756-11.571-5.703-17.665-6.648c-7.635-1.184-14.955-3.82-22.91-3.859c-11.016-0.053-22.024-0.869-33.035,0.236
		c-0.906,0.091-1.03,0.238-0.745,1.204c0.565,1.919,2.034,1.908,3.532,2.176c1.524,0.273,3.037,0.925,3.452,2.546
		c0.29,1.136-0.61,2.075-1.656,2.52c-0.979,0.417-1.269,1.043-1.054,1.985c0.236,1.032,1.11,0.701,1.782,0.77
		c5.322,0.55,10.723,0.701,15.945,1.748c5.583,1.119,11.27,1.541,16.801,3.146c5.324,1.545,10.905,2.186,16.004,4.589
		c0.979,0.461,2.463,1.374,3.107,0.252c0.692-1.205-0.634-2.268-1.65-3.054c-2.118-1.638-3.957-3.537-5.39-5.8
		c-0.521-0.823-0.966-1.703-0.111-2.645c0.842-0.926,1.733-0.774,2.797-0.408c3.775,1.297,7.261,3.171,10.785,5.019
		c11.337,5.942,22.172,12.683,32.798,19.808c9.028,6.054,16.26,13.918,23.326,22.015c5.387,6.173,11.012,12.14,16.346,18.357
		c7.991,9.314,13.68,20.065,19.017,31.035c5.504,11.314,9.779,23.027,11.657,35.498c0.618,4.105,0.446,8.312-0.325,12.433
		c-0.229,1.227-0.904,2.487-2.245,2.488c-1.276,0.001-1.481-1.354-1.763-2.42c-0.846-3.193-1.455-6.403-1.887-9.701
		c-0.7-5.338-2.224-10.564-3.089-15.887c-0.883-5.439-2.684-10.557-4.722-15.62c-0.359-0.891-1.063-1.884-2.197-1.4
		c-1.222,0.521-0.378,1.564-0.197,2.37c1.318,5.867,2.962,11.681,3.905,17.606c0.904,5.681,1.624,11.435,2.511,17.096
		c1.602,10.22,1.926,20.496,2.474,30.736c0.773,14.448-0.191,28.896-2.768,43.187c-1.582,8.776-3.423,17.512-6.291,25.948
		c-3.549,10.438-7.645,20.658-12.844,30.445c-6.322,11.901-13.828,22.924-23.177,32.596c-7.016,7.258-14.902,13.453-24.036,18.009
		c-7.961,3.97-16.194,6.78-25.111,7.336c-0.877,0.055-2.121,0.503-2.53-0.751c-0.351-1.079,0.843-1.465,1.405-2.107
		c0.39-0.446,1.074-0.757,0.72-1.469c-0.154-0.31-0.609-0.496-0.958-0.679c-0.727-0.382-1.581,0.743-2.28-0.172
		c0.745-0.469,1.476-0.964,2.241-1.397c0.521-0.295,1.09-0.504,1.638-0.75c6.186-2.781,12.432-5.255,18.144-9.191
		c7.799-5.375,14.506-11.701,20.366-19.02c4.51-5.634,8.624-11.547,12.146-17.869c2.964-5.32,5.56-10.807,8.191-16.293
		c1.806-3.766,2.75-7.816,4.636-11.513c0.561-1.101-0.483-1.822-1.085-2.473c-0.505-0.547-0.775,0.233-0.996,0.602
		c-4.802,8.034-10.5,15.411-16.359,22.692c-9.73,12.091-21.261,22.163-34.202,30.608c-12.174,7.945-25.277,13.824-39.356,17.739
		c-10.518,2.925-21.198,4.225-31.98,5.198c-1.161,0.105-2.803-0.254-2.904,1.369c-0.106,1.702,1.586,1.701,2.809,1.843
		c5.311,0.616,10.507,1.865,15.92,2.039c6.947,0.222,13.892,0.326,20.75-0.536c5.226-0.657,10.529-1.242,15.621-2.831
		c0.67-0.209,1.83-0.499,2.117,0.342c0.324,0.95-0.885,0.875-1.464,1.18c-4.009,2.111-8.505,2.387-12.821,3.261
		c-12.292,2.489-24.731,3.438-37.272,3.124c-9.931-0.249-19.845-0.793-29.624-2.607c-7.63-1.415-15.253-2.944-22.781-4.819
		c-11.698-2.914-23.232-6.454-34.192-11.534c-5.885-2.728-11.815-5.43-17.294-8.977c-3.234-2.094-6.471-4.192-9.804-6.12
		c-7.72-4.468-15.751-8.449-23.193-13.333c-10.508-6.897-20-15.128-28.587-24.35C66.319,511.241,65.544,510.834,65.59,509.901z
		 M215.973,272.991c9.395-0.415,17.517,0.513,25.539,1.6c13.411,1.817,25.998,6.642,38.13,12.545
		c13.602,6.618,26.202,14.747,37.642,24.734c13.621,11.892,24.948,25.538,32.776,41.862c5.423,11.309,9.484,23.099,12.237,35.424
		c2.535,11.348,4.332,22.727,4.41,34.307c0.056,8.423-0.571,16.856-1.056,25.276c-0.415,7.212-1.297,14.383-2.816,21.456
		c-2.222,10.348-4.107,20.773-7.904,30.732c-2.449,6.423-5.052,12.766-8.09,18.927c-3.687,7.478-8.131,14.501-12.916,21.318
		c-4.553,6.488-9.693,12.496-15.591,17.759c-7.145,6.376-14.756,12.188-23.005,17.113c-0.56,0.334-1.261,0.675-0.864,1.531
		c0.324,0.698,0.907,0.849,1.667,0.693c7.847-1.615,15.277-4.421,22.127-8.508c9.487-5.66,17.663-12.875,24.826-21.347
		c6.942-8.21,12.828-17.11,17.664-26.621c6.277-12.346,11.393-25.144,14.883-38.676c3.111-12.062,5.807-24.179,6.231-36.545
		c0.65-18.958,0.619-37.933-2.611-56.789c-1.399-8.165-2.643-16.36-4.294-24.482c-0.981-4.824-3.2-9.31-3.927-14.216
		c-0.151-1.018-0.062-1.8,0.805-2.366c0.908-0.593,1.886-0.565,2.706,0.101c0.643,0.522,1.113,1.251,1.691,1.859
		c0.357,0.376,0.711,0.979,1.34,0.602c0.648-0.389,0.51-1.038,0.244-1.615c-3.801-8.229-7.994-16.304-13.467-23.5
		c-9.087-11.947-19.362-22.914-29.514-33.964c-9.37-10.2-21.325-16.892-32.932-24.001c-6.865-4.205-13.776-8.408-21.288-11.451
		c-0.733-0.297-1.502-0.829-2.088,0.069c-0.577,0.885,0.203,1.45,0.751,1.985c1.777,1.736,3.701,3.315,5.903,4.457
		c5.924,3.073,11.071,7.28,16.301,11.316c8.561,6.608,16.393,14.03,23.022,22.628c1.762,2.285,3.575,4.637,3.782,7.664
		c0.117,1.71-0.827,2.372-2.428,1.462c-1.671-0.949-3.433-1.812-4.912-3.013c-5.938-4.824-11.75-9.804-17.668-14.653
		c-7.124-5.838-15.386-9.526-23.907-12.84c-6.876-2.674-13.905-4.842-21.073-6.303c-7.418-1.512-14.772-3.395-22.329-4.317
		c-5.177-0.632-10.265-1.998-15.386-3.072c-3.179-0.667-6.353-1.359-9.508-2.127c-1.089-0.265-2.423-0.603-2.584-1.926
		c-0.162-1.327,1.183-1.844,2.108-2.182c2.802-1.024,5.375-2.679,8.567-2.675c2.263,0.003,4.536-0.534,6.786-0.935
		c0.781-0.139,1.881-0.305,1.85-1.385c-0.029-1.004-0.961-1.683-1.831-1.764c-6.043-0.564-12.11-1.532-18.143-1.374
		c-8.116,0.212-16.079,1.898-23.991,3.937c-9.316,2.4-18.242,5.711-26.946,9.712c-6.059,2.785-11.424,6.661-16.795,10.568
		c-8.541,6.212-17.138,12.299-23.654,20.825c-4.795,6.274-8.218,13.316-11.767,20.289c-3.067,6.026-5.69,12.294-6.941,18.938
		c-1.088,5.778-1.463,11.693-2.05,17.557c-0.093,0.933-1.208,2.412,0.349,2.821c1.413,0.371,1.538-1.386,2.121-2.29
		c0.256-0.397,0.35-0.896,0.538-1.34c2.628-6.208,4.597-12.66,7.17-18.901c3.422-8.3,7.694-15.961,14.05-22.342
		c11.519-11.564,24.568-20.578,40.451-25.333c9.418-2.82,18.832-5.772,28.444-7.608
		C198.106,272.819,207.624,271.469,215.973,272.991z M161.402,527.791c3.821,0.037,7.593-0.168,11.367-0.8
		c3.077-0.515,6.217-0.644,9.322-1.01c0.806-0.095,1.509-0.539,1.579-1.489c0.047-0.64-0.349-0.942-0.944-1.131
		c-5.874-1.874-12.014-2.392-18.055-3.21c-9.019-1.221-18.033-2.451-26.472-5.913c-16.281-6.68-29.359-17.648-40.111-31.414
		c-5.84-7.477-10.553-15.68-14.657-24.253c-3.759-7.853-6.591-16.038-8.979-24.364c-2.158-7.526-2.837-15.351-4.024-23.079
		c-1.833-11.93-0.731-23.686,1.264-35.392c1.057-6.199,2.854-12.289,4.589-18.351c2.017-7.049,4.157-14.084,7.533-20.638
		c2.896-5.623,6.148-11.064,8.548-16.937c0.312-0.763,0.512-1.546-0.377-2.074c-0.868-0.516-1.35,0.203-1.828,0.704
		c-1.707,1.787-3.389,3.598-5.067,5.413c-7.57,8.189-12.361,17.936-15.423,28.514c-2.816,9.729-3.72,19.857-5.521,29.8
		c-0.394,2.175-1.109,4.74-3.404,4.649c-2.26-0.089-2.911-2.702-3.157-4.89c-0.04-0.358-0.016-0.724-0.019-1.087
		c-0.068-6.897,1.093-13.64,2.555-20.344c0.204-0.936,0.702-1.993-0.492-2.549c-1.125-0.524-1.635,0.567-2.133,1.225
		c-2.68,3.536-4.356,7.644-4.857,11.932c-1.347,11.532-2.767,23.058-2.032,34.755c0.628,10.005,1.597,19.849,4.612,29.506
		c3.66,11.721,8.851,22.679,15.269,33.062c8.307,13.44,18.152,25.67,29.905,36.286c9.374,8.468,19.471,15.422,32.022,18.874
		C142.007,526.223,151.627,527.208,161.402,527.791z M2.161,343.382c1.836-2.107,0.757-4.757,1.565-6.92
		c3.473-9.301,6.446-18.856,10.756-27.759c4.761-9.835,10.299-19.356,16.807-28.215c4.769-6.493,9.621-12.886,15.015-18.935
		c8.765-9.829,17.993-19.106,28.281-27.289c6.334-5.037,12.878-9.827,19.517-14.456c5.618-3.918,11.708-7.112,17.585-10.624
		c9.862-5.893,20.317-10.4,30.814-14.91c9.729-4.18,19.959-6.547,30.233-8.817c1.038-0.229,2.002-0.796,3.001-1.206
		c-0.872-1.985,0.957-1.299,1.665-1.592c0.624-0.258,1.448-0.327,1.377-1.138c-0.08-0.922-0.986-0.73-1.603-0.714
		c-3.252,0.086-6.518,0.053-9.751,0.362c-11.793,1.125-23.638,1.341-35.256,4.523c-10.619,2.908-20.69,7.042-30.645,11.497
		c-7.565,3.385-14.876,7.322-21.915,11.82c-12.482,7.978-24.118,16.978-34.985,27.004c-7.414,6.84-13.629,14.626-18.211,23.654
		c-3.353,6.605-6.887,13.125-9.185,20.215c-1.964,6.058-4.268,12.018-5.95,18.151c-1.243,4.531-2.903,8.926-4.05,13.472
		c-1.527,6.056-2.99,12.13-4.344,18.226C1.901,334.151-0.799,338.492,2.161,343.382z M38.695,386.316
		c-0.138,7.559,1.021,15.019,1.839,22.486c0.839,7.649,2.597,15.141,4.56,22.614c2.47,9.404,5.685,18.487,9.567,27.369
		c4.575,10.466,9.88,20.566,16.423,29.911c9.144,13.061,20.516,23.927,33.927,32.615c0.584,0.379,1.284,0.912,1.772,0.395
		c0.694-0.735-0.333-1.149-0.735-1.503c-5.493-4.833-10.651-9.99-14.797-16.038c-1.611-2.35-3.749-4.745-2.239-8.075
		c0.291-0.642-0.051-1.267-0.526-1.812c-1.385-1.588-2.787-3.167-4.086-4.825c-12.505-15.954-23.571-32.641-30.012-52.193
		c-3.927-11.921-4.715-24.127-5.877-36.381c-0.374-3.95,0.766-7.763,0.803-11.688c0.051-5.35,0.549-10.696,0.877-16.042
		c0.442-7.2,2.245-14.24,2.35-21.5c0.075-5.213,0.757-10.399,2.101-15.487c0.993-3.761,2.632-7.696-1.272-10.985
		c-0.41-0.345-0.52-1.248-0.493-1.879c0.184-4.205,0.383-8.396,1.378-12.535c2.284-9.505,6.091-18.372,10.496-27.069
		c4.534-8.953,10.4-16.889,17.012-24.356c2.723-3.075,5.591-5.988,8.671-8.702c0.454-0.4,1.098-1.044,0.466-1.694
		c-0.549-0.565-1.152,0.024-1.581,0.385c-1.887,1.591-3.823,3.138-5.575,4.87c-6.452,6.378-12.147,13.387-16.868,21.137
		c-2.632,4.321-5.349,8.655-7.365,13.273c-3.147,7.207-5.545,14.704-7.89,22.24c-4.1,13.178-7.527,26.465-9.774,40.08
		C39.913,362.654,39.144,374.467,38.695,386.316z M365.227,421.697c-0.026-0.17-0.245-0.943-0.248-1.717
		c-0.057-15.194-3.21-29.882-7.576-44.313c-3.444-11.383-8.026-22.373-14.401-32.44c-10.361-16.361-23.913-29.732-39.713-40.86
		c-0.546-0.385-1.331-1.246-1.842-0.497c-0.557,0.815,0.551,1.272,1.109,1.76c4.034,3.523,8.47,6.686,12.007,10.651
		c3.904,4.377,7.315,9.289,10.362,14.318c9.358,15.443,16.552,31.75,19.637,49.746c1.355,7.903,2.414,15.808,2.954,23.787
		c0.347,5.127-0.356,10.202-0.979,15.301c-0.824,6.753-1.712,13.468-3.406,20.065c-1.778,6.925-3.733,13.8-6.195,20.509
		c-1.28,3.487-2.86,6.878-4.503,10.215c-2.231,4.531-4.979,8.806-6.715,13.586c-0.232,0.64-0.267,1.158,0.272,1.633
		c0.567,0.5,1.013,0.118,1.442-0.208c0.526-0.4,1.067-0.797,1.524-1.27c10.883-11.286,16.97-25.014,20.034-40.16
		c1.523-7.525,2.453-15.17,3.692-22.754c0.295-1.805,1.318-3.257,3.159-3.541c1.627-0.252,2.343,1.184,2.99,2.448
		c0.702,1.369,0.968,2.818,1.061,4.352c0.376,6.211-1.66,12.161-1.918,18.301c-0.034,0.8-0.681,1.779,0.515,2.141
		c1.093,0.331,1.409-0.743,1.801-1.428C363.655,435.434,365.027,429.012,365.227,421.697z M-1.08,419.596
		c-1.258,4.313,0.417,8.513-0.654,12.742c-0.32,1.261,1.318,2.169,1.34,3.634c0.119,8.163,2.807,15.846,4.866,23.602
		c1.69,6.365,4.186,12.527,6.507,18.71c4.519,12.037,10.206,23.52,16.553,34.701c10.75,18.938,24.518,35.184,41.644,48.731
		c11.765,9.306,24.644,16.611,37.975,23.263c0.606,0.302,1.395,0.299,2.102,0.318c0.772,0.02,1.476-0.374,1.765-1.06
		c0.325-0.771-0.424-1.242-0.922-1.588c-1.63-1.134-3.39-2.084-4.991-3.255c-14.58-10.663-27.893-22.75-39.841-36.279
		c-5.731-6.489-11.218-13.231-16.365-20.191c-9.314-12.594-17.379-26.03-25.201-39.579c-3.965-6.869-6.818-14.375-10.674-21.315
		c-4.672-8.407-8.384-17.167-11.146-26.341c-0.651-2.161-1.595-4.225-1.687-6.618C0.069,425.902-0.63,422.754-1.08,419.596z
		 M162.022,224.255c-10.521,0.523-20.898,1.918-31.09,4.794c-8.119,2.292-15.836,5.541-22.887,10.025
		c-10.038,6.385-19.054,14.073-26.94,23.08c-9.232,10.545-16.306,22.415-21.49,35.325c-2.784,6.935-4.827,14.236-5.413,21.81
		c-0.068,0.874-0.632,1.889,0.602,2.317c1.25,0.433,1.551-0.789,1.919-1.486c2.044-3.878,3.82-7.906,5.999-11.703
		c6.289-10.96,13.516-21.319,21.927-30.723c9.97-11.149,21.353-20.783,34.129-28.63c10.764-6.611,22.196-11.726,34.407-15.193
		c6.971-1.979,14.06-3.218,21.133-4.601c2.407-0.471,4.918-0.389,7.368-0.673c0.859-0.1,1.858-0.341,2.008-1.489
		c0.09-0.684-0.35-0.969-0.988-1.004C175.799,225.717,169.02,223.846,162.022,224.255z M297.83,426.871
		c-0.107-7.369-1.058-15.654-2.567-23.9c-0.924-5.053-2.978-9.76-4.06-14.753c-0.172-0.796-0.496-2.005-1.675-1.792
		c-1.191,0.215-0.709,1.392-0.689,2.137c0.065,2.347,0.11,4.711,0.431,7.031c2.012,14.525,1.301,29.032-1.064,43.387
		c-1.713,10.396-5.303,20.271-10.038,29.825c-7.282,14.694-18.084,26.281-30.541,36.442c-9.499,7.748-20.101,13.912-31.061,19.417
		c-4.741,2.382-9.543,4.661-14.323,6.937c-4.245,2.021-8.787,3.55-13.165,5.383c-0.611,0.256-1.122,0.547-0.9,1.312
		c0.205,0.707,0.826,0.596,1.357,0.563c5.91-0.371,11.692-1.573,17.422-2.947c8.401-2.015,16.147-5.764,24.036-9.199
		c12.642-5.504,23.492-13.472,33.364-22.904c8.234-7.868,15.201-16.687,20.795-26.696c4.244-7.595,7.506-15.55,9.685-23.847
		C297.006,445.017,297.828,436.454,297.83,426.871z M118.424,376.628c0.413,4.306,0.646,11.325,1.857,18.171
		c1.411,7.974,3.444,15.862,6.371,23.465c0.241,0.626,0.069,1.693,1.082,1.619c1.122-0.082,0.898-1.132,0.873-1.867
		c-0.169-4.994-1.466-9.911-1.639-14.844c-0.564-16.085-0.586-32.188,3.552-47.944c2.152-8.197,5.392-15.973,9.375-23.435
		c3.043-5.7,6.386-11.314,10.546-16.186c7.754-9.083,16.537-17.261,26.536-23.816c8.989-5.893,17.874-12.139,28.241-15.604
		c0.58-0.194,1.021-0.407,0.913-1.102c-0.119-0.77-0.664-0.655-1.241-0.628c-2.347,0.112-4.705,0.077-7.043,0.275
		c-6.613,0.561-13.196,1.409-19.295,4.228c-9.293,4.296-17.16,10.759-24.613,17.546c-12.82,11.675-23.119,25.317-28.787,41.945
		C121.234,349.941,118.598,361.731,118.424,376.628z M149.679,488.526c0.483,0,0.967,0.007,1.45-0.002
		c0.919-0.017,1.972-0.018,2.312-1.023c0.333-0.986-0.671-1.512-1.29-1.976c-0.852-0.638-1.961-0.928-2.829-1.55
		c-8.193-5.868-16.213-11.968-22.724-19.746c-12.801-15.292-22.243-32.216-25.815-52.159c-1.337-7.465-2.799-14.913-2.898-22.469
		c-0.144-10.968,1.41-21.795,4.082-32.455c0.31-1.235,1.418-2.999-0.026-3.841c-1.704-0.993-2.081,1.273-3.04,2.093
		c-0.534,0.457-0.949,1.091-1.308,1.709c-5.049,8.701-7.131,18.355-7.584,28.154c-0.634,13.705-0.318,27.391,2.982,40.943
		c2.019,8.295,4.711,16.267,8.204,23.958c5.552,12.225,13.912,22.219,25.155,29.704C133.446,484.594,141.323,487.2,149.679,488.526z
		 M326.862,406.816c0.388-12.767-1.871-25.229-5.337-37.374c-3.538-12.395-9.024-23.957-17.571-33.926
		c-9.788-11.417-22.014-18.288-36.739-20.878c-0.735-0.129-1.686-0.337-2.107,0.559c-0.466,0.993,0.312,1.609,1.018,2.062
		c10.428,6.7,19.622,14.806,27.484,24.375c6.565,7.99,12.241,16.563,16.204,26.18c4.353,10.565,7.257,21.475,8.728,32.843
		c1.144,8.845,1.373,17.62,0.479,26.472c-0.655,6.479-2.125,12.809-3.216,19.208c-0.114,0.667-0.286,1.406,0.463,1.762
		c0.746,0.355,1.047-0.341,1.384-0.828c1.653-2.391,3.092-4.926,4.057-7.65C325.462,429.016,327.168,418.067,326.862,406.816z
		 M241.81,533.552c-1.73,0.062-3.386-0.261-5.002-0.777c-0.787-0.251-1.833-0.5-1.77-1.521c0.057-0.915,1.001-1.227,1.813-1.548
		c3.525-1.39,7.196-2.44,10.448-4.47c1.1-0.686,3.165-1.423,2.792-2.378c-0.558-1.426-2.187,0.048-3.305,0.233
		c-5.559,0.919-10.991,2.564-15.933,5.172c-5.683,2.998-11.59,5.288-17.604,7.431c-4.666,1.662-9.53,2.421-14.32,3.525
		c-0.546,0.126-1.15,0.245-1.194,0.907c-0.055,0.832,0.755,0.65,1.198,0.781c1.9,0.563,3.816,1.074,5.738,1.557
		c3.525,0.887,6.368,4.307,10.602,2.668c1.654-0.64,3.492-0.827,5.261-1.14c6.763-1.195,13.351-3.041,19.849-5.234
		c3.926-1.325,7.741-3.103,12.005-3.068c1.435,0.012,2.871,0.333,3.372,1.912c0.515,1.624-0.732,2.368-1.863,3.126
		c-4.329,2.902-9.169,4.816-13.791,7.151c-0.468,0.237-1.219,0.273-1.11,0.973c0.136,0.864,0.947,0.572,1.488,0.544
		c0.53-0.027,1.078-0.183,1.569-0.395c7.954-3.44,15.914-6.852,23.526-11.045c4.587-2.526,9.355-4.432,11.023-10.312
		c0.899-3.167,4.045-4.206,7.301-3.442c2.521,0.591,4.55-0.145,6.323-1.77c5.428-4.971,10.534-10.232,14.361-16.592
		c0.682-1.133,0.859-2.258-0.156-3.314c-2.4-2.497-4.096-5.31-4.398-8.878c-0.137-1.622-1.251-1.259-2.057-0.554
		c-4.486,3.928-9.025,7.802-13.354,11.898c-6.12,5.79-10.889,12.867-17.67,18.081C259.448,528.845,251.237,532.579,241.81,533.552z
		 M409.948,413.504c0.622-6.72-0.398-15.117-1.797-23.435c-1.646-9.788-4.271-19.303-7.91-28.617
		c-3.282-8.403-7.411-16.167-12.953-23.218c-0.551-0.702-0.908-2.321-2.191-1.606c-1.079,0.6-0.582,1.979-0.307,3.001
		c1.332,4.941,2.955,9.789,4.551,14.651c3.426,10.441,5.257,21.29,6.709,32.123c1.549,11.558,3.201,23.124,3.838,34.804
		c0.749,13.73,0.896,27.473,1.278,41.212c0.033,1.194-0.245,2.394-0.27,3.594c-0.015,0.717,0.396,1.332,1.173,1.374
		c0.818,0.044,0.881-0.658,0.967-1.27c0.158-1.132,0.199-2.298,0.501-3.391C407.821,447.196,410.226,431.415,409.948,413.504z
		 M198.943,199.427c8.821-0.688,17.406,0.608,26.031,0.582c3.954-0.012,7.913,0.338,11.863,0.242
		c4.078-0.1,8.021,0.823,12.021,1.257c5.968,0.647,11.896,1.685,17.827,2.644c4.025,0.651,7.803,2.431,11.916,2.707
		c0.773,0.052,1.634,0.1,1.865-0.969c0.194-0.897-0.174-1.542-0.946-1.951c-2.286-1.21-4.568-2.427-6.878-3.589
		c-6.725-3.383-13.759-6.042-20.8-8.66c-4.833-1.797-9.662-3.84-14.679-4.854c-10.179-2.057-20.384-0.429-30.495,1.093
		c-7.108,1.07-14.111,2.74-21.115,4.404c-8.265,1.963-16.442,4.116-24.24,7.525c-0.614,0.268-1.887,0.362-1.504,1.393
		c0.352,0.948,1.308,1.53,2.528,1.216c1.451-0.374,2.905-0.839,4.385-0.984C177.501,200.431,188.225,198.524,198.943,199.427z
		 M105.012,405.246c-0.248,8.419,2.641,18.401,6.816,27.873c5.17,11.728,12.562,22.068,22.27,30.627
		c4.001,3.527,8.577,6.205,13.025,9.068c0.749,0.482,1.964,1.54,2.874,0.193c0.832-1.233-0.327-2.03-1.084-2.716
		c-4.458-4.038-8.016-8.853-11.554-13.642c-9.486-12.841-16.787-26.812-20.977-42.294c-2.124-7.847-3.78-15.775-3.729-23.966
		c0.016-2.635,0.045-5.272-0.039-7.905c-0.037-1.161-0.37-2.54-1.622-2.773c-1.312-0.244-1.616,1.154-2.063,2.125
		c-0.503,1.093-1.132,2.137-1.532,3.265C105.33,390.92,105.152,396.995,105.012,405.246z M7.174,389.816
		c0.023,4.677,0.275,7.831,0.639,11.017c0.812,7.113,1.75,14.216,3.326,21.171c1.592,7.029,3.724,13.948,6.504,20.649
		c3.133,7.554,7.573,14.347,11.892,21.22c0.379,0.604,0.98,0.929,1.716,0.595c0.532-0.242,0.608-0.704,0.429-1.224
		c-0.547-1.591-0.85-3.324-1.682-4.749c-6.163-10.56-9.053-22.242-11.505-34.014c-2.389-11.467-2.708-23.168-3.001-34.852
		c-0.236-9.419,1.438-18.765,1.06-28.167c-0.347-8.626-1.343-17.232-0.315-25.873c0.085-0.712,0.101-1.582-0.875-1.72
		c-0.984-0.138-1.142,0.695-1.291,1.413c-0.803,3.884-1.426,7.814-2.425,11.647c-2.117,8.119-3.004,16.435-4.007,24.715
		C6.852,378.149,6.972,384.74,7.174,389.816z M311.317,401.29c0.422-12.757-3.403-25.024-9.438-36.54
		c-6.87-13.109-16.285-24.155-29.012-32.077c-0.731-0.455-1.554-1.651-2.463-0.485c-0.825,1.059,0.338,1.733,0.945,2.398
		c4.757,5.216,9.266,10.715,12.993,16.636c7.086,11.255,13.228,23.002,16.716,36.047c2.675,10.006,4.113,20.116,4.805,30.389
		c0.057,0.845-0.099,1.905,0.913,2.137c1.08,0.247,1.32-0.885,1.647-1.604C310.797,412.977,311.449,407.446,311.317,401.29z
		 M242.064,532.001c4.301,0.107,8.498-0.821,12.289-2.579c14.597-6.765,24.937-18.076,32.577-31.947
		c2.902-5.268,4.733-11.033,5.792-17.005c0.175-0.984,1.021-2.297-0.038-2.76c-1.157-0.505-1.728,0.967-2.217,1.875
		c-2.883,5.36-5.84,10.664-9.316,15.679c-7.85,11.325-17.598,20.679-28.98,28.39c-3.769,2.554-8.021,4.129-12.052,6.152
		c-0.565,0.284-1.396,0.472-1.146,1.361c0.216,0.771,0.976,0.803,1.647,0.835C241.101,532.027,241.585,532.008,242.064,532.001z
		 M127.842,269.357c0.209,1.993,0.184,3.474,0.552,4.85c0.497,1.856,1.806,3.595,3.76,2.176c4.075-2.958,8.896-5.354,11.587-9.66
		c3.455-5.527,7.774-9.714,13.611-12.466c0.661-0.312,1.53-0.87,1.131-1.797c-0.336-0.78-1.25-0.872-2.049-0.82
		c-7.124,0.464-13.858,2.281-20.1,5.807C131.453,260.204,128.729,264.408,127.842,269.357z M171.083,471.237
		c2.941-0.043,5.65-0.556,8.051-2.338c3.33-2.471,4.835-6.52,3.394-9.403c-1.661-3.324-4.352-4.456-8.954-2.843
		c-7.676,2.69-15.223,5.234-23.113,0.856c-0.431-0.239-0.98-0.12-1.285,0.354c-0.389,0.606-0.207,1.2,0.286,1.627
		c1.407,1.219,2.843,2.405,4.287,3.581C158.859,467.228,164.516,470.215,171.083,471.237z M234.144,340.859
		c0.135,1.025,0.457,2.156,1.302,3.107c2.589,2.915,6.244,3.259,10.765,1.14c5.148-2.413,10.401-3.574,16.054-1.528
		c1.209,0.438,3.155,1.864,4.048,0.252c0.873-1.576-1.391-2.3-2.371-3.112c-5.719-4.737-11.838-8.776-19.676-8.716
		C239.405,332.038,234.128,336.665,234.144,340.859z M311.158,485.228c-6.971-0.426-9.296,2.961-9.516,8.376
		c-0.191,4.693,4.388,9.856,9.851,9.849c4.86-0.006,8.888-4.362,8.92-9.713C320.443,488.72,316.659,485.24,311.158,485.228z
		 M282.828,525.46c-3.205-0.124-4.823,2.157-5.833,4.549c-2.795,6.623-5.94,12.92-11.929,17.313
		c-0.476,0.349-1.027,0.818-0.716,1.506c0.356,0.789,1.067,0.591,1.734,0.43c2.285-0.551,4.635-0.906,6.848-1.662
		c7.018-2.397,12.796-6.218,14.942-13.895C288.978,529.751,286.37,525.491,282.828,525.46z M263.407,347.834
		c-2.348-0.326-4.321,0.7-6.149,1.819c-2.018,1.235-2.582,3.254-1.954,5.532c0.844,3.058,2.988,4.284,6.05,4.76
		c6.865,1.069,13.955,1.722,19.11,7.326c0.382,0.415,0.872,0.75,1.427,0.331c0.637-0.48,0.343-1.079,0.063-1.625
		c-2.007-3.912-4.216-7.694-6.974-11.14C271.965,351.071,268.5,348.092,263.407,347.834z M233.964,310.871
		c-2.843-0.182-5.143,1.008-7.372,2.579c-4.173,2.94-3.956,7.874,0.565,10.144c1.928,0.968,3.908,0.392,5.806-0.236
		c5.725-1.892,11.361-4.379,17.604-2.261c0.379,0.129,0.839,0.03,1.261,0.02c0.553-0.013,1.124-0.045,1.364-0.662
		c0.245-0.628-0.167-1.066-0.588-1.396C247.092,314.726,241.202,311.24,233.964,310.871z M181.857,537.204
		c4.786-0.445,9.287-3.415,14.277-4.875c0.5-0.146,0.974-0.596,0.809-1.252c-0.208-0.826-0.91-0.791-1.591-0.87
		c-4.84-0.562-9.756-0.056-14.567-1.144c-2.966-0.671-6.042-0.515-9.013-0.146c-7.126,0.885-14.218,1.002-21.327-0.031
		c-0.628-0.091-1.474-0.401-1.738,0.43c-0.299,0.938,0.657,1.043,1.235,1.195c4.647,1.218,9.279,2.514,13.969,3.544
		C169.662,535.316,175.394,536.753,181.857,537.204z M182.926,491.887c2.543,0.128,4.828-0.534,6.759-2.128
		c2.23-1.841,4.328-3.841,2.959-7.171c-1.181-2.871-4.098-4.174-7.556-3.245c-2.311,0.62-4.558,1.489-6.813,2.305
		c-4.204,1.522-8.396,0.849-12.603,0.044c-0.795-0.152-1.691-0.092-2.002,0.799c-0.326,0.933,0.61,1.152,1.182,1.538
		c1.146,0.774,2.288,1.554,3.437,2.323C172.746,489.334,177.55,491.388,182.926,491.887z M153.374,454.926
		c1.395,0.13,2.482-0.663,3.675-1.036c2.142-0.669,4.608-1.289,4.44-4.154c-0.237-4.041-2.195-5.963-5.677-6.546
		c-6.351-1.064-12.949-1.44-18.145-6.019c-0.421-0.371-0.94-0.635-1.45-0.145c-0.457,0.44-0.429,0.988-0.104,1.487
		c2.095,3.221,3.988,6.604,6.364,9.604C145.248,451.617,148.934,453.976,153.374,454.926z M153.136,287.781
		c-0.453-0.985-1.296-0.913-1.905-0.668c-1.558,0.627-3.073,1.376-4.554,2.173c-4.424,2.383-9.03,4.313-12.001,8.911
		c-4.406,6.819-7.196,14.219-9.324,21.951c-0.157,0.571-0.503,1.229,0.323,1.54c0.876,0.33,1.321-0.251,1.688-0.946
		c6.489-12.277,14.365-23.473,25.236-32.332C152.815,288.235,152.967,287.983,153.136,287.781z M106.071,298.616
		c-5.411,0.095-8.504,3.215-10.04,8.033c-1.015,3.182,0.226,6.034,2.24,8.494c1.636,1.998,3.149,1.834,4.342-0.564
		c2.007-4.034,4.093-8.028,6.081-12.07C110.015,299.824,109.157,298.604,106.071,298.616z M245.5,296.101
		c-3.512,0.001-6.672,3.101-6.649,6.524c0.023,3.461,3.344,6.707,6.944,6.786c3.241,0.071,6.424-3.092,6.397-6.356
		C252.158,298.898,249.465,296.1,245.5,296.101z M224.887,479.862c2.909-0.005,5.918-3.022,5.949-5.965
		c0.029-2.75-3.445-6.042-6.364-6.031c-2.987,0.011-5.554,2.732-5.597,5.933C218.829,477.243,221.432,479.869,224.887,479.862z
		 M197.919,329.006c0.002-3.584-2.439-6.121-5.868-6.098c-2.857,0.019-5.819,3.085-5.839,6.044
		c-0.021,3.143,2.917,5.948,6.228,5.944C195.494,334.892,197.917,332.286,197.919,329.006z M171.653,505.608
		c3.639,0.006,5.513-1.801,5.565-5.368c0.045-3.086-2.163-5.568-4.946-5.56c-3.181,0.01-6.96,3.253-6.977,5.988
		C165.279,503.244,168.314,505.602,171.653,505.608z M241.586,276.528c-1.556,0.104-3.113,0.207-4.669,0.314
		c-1.101,0.076-2.37,0.102-2.395,1.578c-0.023,1.374,1.266,1.159,2.155,1.358c7.208,1.609,14.475,2.824,21.845,3.395
		c1.16,0.09,2.759,0.786,2.977-0.861c0.193-1.458-1.497-1.619-2.65-1.829c-2.246-0.408-4.447-0.923-6.65-1.565
		C248.723,277.904,245.36,276.232,241.586,276.528z M261.709,306.868c-0.013,2.672,2.177,4.897,4.902,4.649
		c2.625-0.239,4.373-1.656,4.42-4.534c0.043-2.679-1.954-4.697-4.598-4.707C263.753,302.267,261.722,304.241,261.709,306.868z
		 M389.64,388.451c-0.016-7.354-2.09-14.061-4.227-20.754c-0.29-0.909-0.196-2.484-1.55-2.202c-1.41,0.293-0.978,1.931-0.686,2.789
		c2.267,6.68,2.508,13.784,4.425,20.525c0.34,1.196,0.072,3.564,1.165,3.346C390.6,391.79,389.141,389.561,389.64,388.451z
		 M302.517,533.873c2.232,0.112,3.755-1.156,3.995-3.584c0.256-2.599-1.936-4.804-4.553-4.718c-2.78,0.092-4.268,2.076-4.234,4.44
		C297.76,532.422,299.553,533.926,302.517,533.873z M92.126,340.273c-2.786-0.018-4.487,1.59-4.46,4.208
		c0.026,2.478,1.452,4.286,3.833,4.047c3.244-0.326,2.599-3.486,3.031-5.662C94.91,340.953,93.9,340.036,92.126,340.273z
		 M114.953,269.194c-2.778,0.043-4.094,1.372-4.049,3.713c0.044,2.302,1.58,3.831,3.764,3.855c2.189,0.025,3.849-1.42,3.736-3.789
		C118.3,270.796,117.048,269.299,114.953,269.194z M147.383,496.353c0.323,1.869,1.482,3.13,3.574,3.04
		c2.022-0.087,3.431-1.229,3.391-3.406c-0.042-2.225-1.378-3.76-3.549-3.741C148.555,492.266,147.601,494.009,147.383,496.353z"/>
	<path style="fill:#68D1FA;" d="M65.484,509.599c0.054,0.094,0.089,0.195,0.105,0.303c-0.046,0.933,0.729,1.34,1.246,1.895
		c8.588,9.222,18.08,17.454,28.587,24.35c7.442,4.884,15.473,8.866,23.193,13.333c3.333,1.929,6.57,4.027,9.804,6.12
		c5.479,3.547,11.409,6.249,17.294,8.977c10.96,5.081,22.494,8.621,34.192,11.534c7.528,1.875,15.151,3.404,22.781,4.819
		c9.779,1.813,19.693,2.358,29.624,2.607c12.54,0.314,24.98-0.635,37.272-3.124c4.315-0.874,8.812-1.151,12.821-3.261
		c0.579-0.305,1.788-0.23,1.464-1.18c-0.287-0.842-1.447-0.551-2.117-0.342c-5.092,1.589-10.395,2.174-15.621,2.831
		c-6.858,0.862-13.803,0.758-20.75,0.536c-5.413-0.173-10.609-1.422-15.92-2.039c-1.224-0.142-2.915-0.141-2.809-1.843
		c0.101-1.623,1.742-1.264,2.904-1.369c10.782-0.974,21.462-2.274,31.98-5.198c14.079-3.915,27.181-9.794,39.356-17.739
		c12.941-8.446,24.472-18.518,34.202-30.608c5.859-7.28,11.557-14.658,16.359-22.692c0.22-0.369,0.491-1.149,0.996-0.602
		c0.602,0.651,1.646,1.372,1.085,2.473c-1.885,3.697-2.829,7.747-4.636,11.513c-2.631,5.486-5.227,10.973-8.191,16.293
		c-3.522,6.322-7.636,12.235-12.146,17.869c-5.86,7.32-12.567,13.646-20.366,19.02c-5.712,3.936-11.958,6.41-18.144,9.191
		c-0.548,0.246-1.117,0.455-1.638,0.75c-0.765,0.433-1.496,0.928-2.241,1.397c0.699,0.915,1.553-0.21,2.28,0.172
		c0.349,0.183,0.804,0.369,0.958,0.679c0.354,0.713-0.331,1.024-0.72,1.469c-0.562,0.643-1.756,1.029-1.405,2.107
		c0.408,1.254,1.652,0.806,2.53,0.751c8.917-0.556,17.15-3.365,25.111-7.336c9.134-4.555,17.021-10.751,24.036-18.009
		c9.349-9.672,16.855-20.695,23.177-32.596c5.199-9.787,9.294-20.006,12.844-30.445c2.869-8.436,4.709-17.172,6.291-25.948
		c2.577-14.292,3.541-28.739,2.768-43.187c-0.548-10.24-0.872-20.516-2.474-30.736c-0.887-5.661-1.607-11.416-2.511-17.096
		c-0.943-5.926-2.587-11.739-3.905-17.606c-0.181-0.806-1.025-1.849,0.197-2.37c1.135-0.483,1.839,0.51,2.197,1.4
		c2.038,5.062,3.838,10.18,4.722,15.62c0.864,5.324,2.388,10.549,3.089,15.887c0.433,3.297,1.042,6.507,1.887,9.701
		c0.282,1.066,0.487,2.421,1.763,2.42c1.34-0.001,2.015-1.262,2.245-2.488c0.771-4.121,0.943-8.327,0.325-12.433
		c-1.877-12.471-6.153-24.185-11.657-35.498c-5.336-10.97-11.026-21.721-19.017-31.035c-5.334-6.218-10.959-12.184-16.346-18.357
		c-7.066-8.098-14.298-15.961-23.326-22.015c-10.625-7.125-21.461-13.866-32.798-19.808c-3.524-1.847-7.01-3.721-10.785-5.019
		c-1.064-0.366-1.955-0.518-2.797,0.408c-0.856,0.941-0.41,1.822,0.111,2.645c1.434,2.264,3.273,4.162,5.39,5.8
		c1.016,0.786,2.341,1.848,1.65,3.054c-0.644,1.122-2.128,0.21-3.107-0.252c-5.098-2.403-10.68-3.044-16.004-4.589
		c-5.531-1.605-11.219-2.026-16.801-3.146c-5.222-1.047-10.623-1.198-15.945-1.748c-0.672-0.069-1.546,0.262-1.782-0.77
		c-0.215-0.942,0.075-1.569,1.054-1.985c1.046-0.445,1.946-1.385,1.656-2.52c-0.415-1.621-1.928-2.273-3.452-2.546
		c-1.498-0.268-2.967-0.258-3.532-2.176c-0.284-0.966-0.161-1.113,0.745-1.204c11.011-1.105,22.019-0.29,33.035-0.236
		c7.955,0.039,15.275,2.674,22.91,3.859c6.094,0.945,12.01,3.892,17.665,6.648c15.193,7.405,27.41,18.891,39.861,30
		c4.99,4.452,10.125,8.8,14.654,13.696c7.905,8.545,16.382,16.585,21.978,27.144c3.264,6.159,7.454,11.87,9.428,18.631
		c2.265,7.756,5.236,15.271,6.792,23.286c1.671,8.612,3.149,17.27,4.258,25.932c1.05,8.198,2.394,16.403,2.607,24.725
		c0.151,5.874,1.288,11.689,1.073,17.621c-0.328,9.036-0.759,18.134-2.764,26.89c-2.528,11.041-5.204,22.103-9.872,32.578
		c-2.96,6.642-5.001,13.682-8.443,20.149c-8.278,15.554-18.015,29.99-30.504,42.582c-9.583,9.661-19.909,18.276-32.03,24.41
		c-8.567,4.335-17.347,8.365-26.95,10.173c-3.397,0.64-6.669,1.962-9.982,3.022c-2.213,0.708-4.51,0.626-6.774,0.78
		c-1.214,0.082-1.123-0.705-0.45-1.366c0.858-0.842,1.812-1.586,2.712-2.386c0.758-0.674,1.417-1.462,0.856-2.514
		c-0.527-0.988-1.339-1.589-2.596-1.662c-4.609-0.265-8.871,0.938-13.186,2.445c-10.968,3.831-22.11,7.007-33.631,8.878
		c-5.51,0.895-10.973,1.356-16.532,1.434c-7.057,0.099-14.168,0.351-20.977-1.604c-10.595-3.042-21.419-5.283-31.399-10.447
		c-8.944-4.628-17.889-9.197-26.423-14.555c-9.347-5.868-18.172-12.455-27.017-19.042c-12.468-9.285-24.339-19.274-35.948-29.581
		c-3.165-2.81-4.369-6.863-5.18-10.948c-0.572-2.882-1.905-5.312-3.669-7.709c-3.075-4.179-6.848-7.954-8.452-13.098
		c-0.183-0.588-0.509-1.235,0.174-1.603c0.744-0.401,1.255,0.233,1.662,0.74c3.542,4.418,7.046,8.868,10.604,13.274
		C63.212,507.858,64.024,509.102,65.484,509.599z"/>
	<path style="fill:#68D1FA;" d="M2.161,343.382c-2.96-4.89-0.26-9.231,0.722-13.652c1.354-6.096,2.817-12.17,4.344-18.226
		c1.146-4.546,2.807-8.941,4.05-13.472c1.682-6.133,3.986-12.093,5.95-18.151c2.298-7.09,5.833-13.61,9.185-20.215
		c4.582-9.028,10.797-16.813,18.211-23.654c10.867-10.026,22.503-19.026,34.985-27.004c7.038-4.499,14.35-8.436,21.915-11.82
		c9.955-4.454,20.026-8.588,30.645-11.497c11.618-3.182,23.463-3.398,35.256-4.523c3.233-0.308,6.499-0.275,9.751-0.362
		c0.617-0.016,1.523-0.208,1.603,0.714c0.07,0.811-0.753,0.88-1.377,1.138c-0.709,0.293-2.538-0.393-1.665,1.592
		c-0.998,0.41-1.962,0.977-3.001,1.206c-10.274,2.27-20.504,4.637-30.233,8.817c-10.497,4.51-20.952,9.017-30.814,14.91
		c-5.877,3.512-11.967,6.707-17.585,10.624c-6.639,4.63-13.184,9.419-19.517,14.456c-10.289,8.183-19.516,17.46-28.281,27.289
		c-5.394,6.049-10.246,12.442-15.015,18.935c-6.507,8.858-12.046,18.38-16.807,28.215c-4.31,8.903-7.284,18.458-10.756,27.759
		C2.918,338.626,3.996,341.275,2.161,343.382z"/>
	<path style="fill:#68D1FA;" d="M38.695,386.316c0.449-11.849,1.218-23.662,3.154-35.389c2.247-13.615,5.674-26.901,9.774-40.08
		c2.345-7.536,4.743-15.033,7.89-22.24c2.016-4.617,4.733-8.951,7.365-13.273c4.721-7.75,10.416-14.759,16.868-21.137
		c1.752-1.732,3.688-3.279,5.575-4.87c0.428-0.361,1.032-0.95,1.581-0.385c0.631,0.65-0.012,1.293-0.466,1.694
		c-3.08,2.714-5.948,5.627-8.671,8.702c-6.612,7.467-12.478,15.403-17.012,24.356c-4.404,8.697-8.211,17.564-10.496,27.069
		c-0.994,4.138-1.194,8.329-1.378,12.535c-0.028,0.632,0.083,1.534,0.493,1.879c3.904,3.288,2.265,7.223,1.272,10.985
		c-1.344,5.089-2.026,10.275-2.101,15.487c-0.105,7.259-1.907,14.299-2.35,21.5c-0.328,5.346-0.826,10.692-0.877,16.042
		c-0.037,3.926-1.177,7.738-0.803,11.688c1.161,12.254,1.949,24.46,5.877,36.381c6.441,19.551,17.507,36.238,30.012,52.193
		c1.299,1.658,2.701,3.236,4.086,4.825c0.475,0.545,0.817,1.17,0.526,1.812c-1.509,3.331,0.629,5.725,2.239,8.075
		c4.145,6.048,9.304,11.205,14.797,16.038c0.402,0.354,1.429,0.768,0.735,1.503c-0.488,0.516-1.187-0.017-1.772-0.395
		c-13.411-8.688-24.783-19.554-33.927-32.615c-6.542-9.345-11.848-19.445-16.423-29.911c-3.882-8.882-7.097-17.964-9.567-27.369
		c-1.963-7.473-3.721-14.965-4.56-22.614C39.715,401.335,38.556,393.875,38.695,386.316z"/>
	<path style="fill:#68D1FA;" d="M365.227,421.697c-0.2,7.315-1.572,13.737-4.936,19.625c-0.391,0.685-0.707,1.759-1.801,1.428
		c-1.195-0.362-0.549-1.341-0.515-2.141c0.258-6.14,2.295-12.09,1.918-18.301c-0.093-1.534-0.359-2.984-1.061-4.352
		c-0.648-1.263-1.364-2.699-2.99-2.448c-1.84,0.285-2.864,1.737-3.159,3.541c-1.239,7.584-2.169,15.229-3.692,22.754
		c-3.064,15.146-9.152,28.874-20.034,40.16c-0.457,0.473-0.997,0.87-1.524,1.27c-0.429,0.326-0.875,0.708-1.442,0.208
		c-0.539-0.476-0.505-0.993-0.272-1.633c1.736-4.78,4.484-9.054,6.715-13.586c1.643-3.337,3.223-6.728,4.503-10.215
		c2.462-6.709,4.417-13.585,6.195-20.509c1.694-6.597,2.582-13.313,3.406-20.065c0.622-5.099,1.326-10.174,0.979-15.301
		c-0.54-7.979-1.599-15.884-2.954-23.787c-3.085-17.997-10.279-34.303-19.637-49.746c-3.048-5.029-6.459-9.94-10.362-14.318
		c-3.537-3.966-7.972-7.129-12.007-10.651c-0.558-0.487-1.666-0.945-1.109-1.76c0.511-0.749,1.296,0.112,1.842,0.497
		c15.8,11.128,29.352,24.498,39.713,40.86c6.375,10.067,10.956,21.057,14.401,32.44c4.367,14.431,7.519,29.119,7.576,44.313
		C364.982,420.754,365.201,421.527,365.227,421.697z"/>
	<path style="fill:#68D1FA;" d="M-1.08,419.596c0.451,3.158,1.149,6.306,1.271,9.477c0.092,2.393,1.036,4.457,1.687,6.618
		c2.762,9.174,6.474,17.933,11.146,26.341c3.856,6.94,6.709,14.445,10.674,21.315c7.821,13.549,15.887,26.985,25.201,39.579
		c5.147,6.96,10.634,13.702,16.365,20.191c11.948,13.529,25.261,25.615,39.841,36.279c1.601,1.171,3.361,2.121,4.991,3.255
		c0.497,0.346,1.247,0.817,0.922,1.588c-0.289,0.685-0.993,1.08-1.765,1.06c-0.707-0.019-1.496-0.016-2.102-0.318
		c-13.33-6.652-26.21-13.957-37.975-23.263c-17.126-13.546-30.894-29.792-41.644-48.731c-6.347-11.181-12.034-22.664-16.553-34.701
		c-2.321-6.183-4.817-12.346-6.507-18.71c-2.059-7.756-4.747-15.438-4.866-23.602c-0.021-1.466-1.659-2.373-1.34-3.634
		C-0.663,428.109-2.338,423.909-1.08,419.596z"/>
	<path style="fill:#68D1FA;" d="M118.424,376.628c0.174-14.897,2.81-26.688,6.727-38.178c5.668-16.628,15.968-30.27,28.787-41.945
		c7.452-6.787,15.32-13.25,24.613-17.546c6.099-2.819,12.682-3.667,19.295-4.228c2.338-0.198,4.696-0.163,7.043-0.275
		c0.577-0.028,1.122-0.143,1.241,0.628c0.108,0.694-0.333,0.908-0.913,1.102c-10.367,3.465-19.252,9.711-28.241,15.604
		c-9.999,6.556-18.781,14.733-26.536,23.816c-4.16,4.872-7.503,10.487-10.546,16.186c-3.984,7.462-7.223,15.238-9.375,23.435
		c-4.137,15.757-4.116,31.859-3.552,47.944c0.173,4.934,1.47,9.85,1.639,14.844c0.025,0.735,0.248,1.785-0.873,1.867
		c-1.013,0.074-0.841-0.993-1.082-1.619c-2.927-7.603-4.96-15.491-6.371-23.465C119.069,387.954,118.836,380.935,118.424,376.628z"
		/>
	<path style="fill:#68D1FA;" d="M149.679,488.526c-8.356-1.326-16.233-3.932-23.331-8.658
		c-11.243-7.485-19.603-17.479-25.155-29.704c-3.493-7.692-6.184-15.664-8.204-23.958c-3.299-13.552-3.616-27.238-2.982-40.943
		c0.454-9.799,2.535-19.453,7.584-28.154c0.359-0.618,0.774-1.252,1.308-1.709c0.959-0.82,1.336-3.086,3.04-2.093
		c1.444,0.842,0.335,2.606,0.026,3.841c-2.672,10.66-4.226,21.487-4.082,32.455c0.099,7.555,1.561,15.003,2.898,22.469
		c3.572,19.943,13.015,36.867,25.815,52.159c6.511,7.778,14.531,13.878,22.724,19.746c0.868,0.622,1.977,0.912,2.829,1.55
		c0.619,0.464,1.624,0.99,1.29,1.976c-0.34,1.005-1.393,1.006-2.312,1.023C150.645,488.534,150.162,488.526,149.679,488.526z"/>
	<path style="fill:#68D1FA;" d="M241.81,533.552c9.427-0.973,17.638-4.707,25.146-10.481c6.781-5.214,11.55-12.291,17.67-18.081
		c4.329-4.096,8.869-7.97,13.354-11.898c0.806-0.705,1.92-1.068,2.057,0.554c0.302,3.568,1.998,6.381,4.398,8.878
		c1.015,1.056,0.838,2.181,0.156,3.314c-3.828,6.36-8.934,11.621-14.361,16.592c-1.774,1.625-3.802,2.361-6.323,1.77
		c-3.256-0.764-6.403,0.275-7.301,3.442c-1.668,5.88-6.437,7.786-11.023,10.312c-7.612,4.192-15.572,7.604-23.526,11.045
		c-0.491,0.212-1.039,0.368-1.569,0.395c-0.541,0.028-1.353,0.32-1.488-0.544c-0.11-0.7,0.641-0.736,1.11-0.973
		c4.622-2.335,9.462-4.249,13.791-7.151c1.131-0.758,2.378-1.502,1.863-3.126c-0.501-1.579-1.937-1.9-3.372-1.912
		c-4.264-0.035-8.079,1.743-12.005,3.068c-6.498,2.194-13.086,4.039-19.849,5.234c-1.769,0.313-3.608,0.5-5.261,1.14
		c-4.235,1.639-7.077-1.781-10.602-2.668c-1.922-0.483-3.838-0.995-5.738-1.557c-0.443-0.131-1.253,0.052-1.198-0.781
		c0.044-0.662,0.649-0.782,1.194-0.907c4.79-1.104,9.655-1.862,14.32-3.525c6.014-2.143,11.921-4.432,17.604-7.431
		c4.942-2.608,10.374-4.253,15.933-5.172c1.118-0.185,2.747-1.658,3.305-0.233c0.374,0.955-1.692,1.692-2.792,2.378
		c-3.252,2.03-6.924,3.08-10.448,4.47c-0.812,0.32-1.756,0.632-1.813,1.548c-0.063,1.021,0.982,1.27,1.77,1.521
		C238.424,533.291,240.08,533.614,241.81,533.552z"/>
	<path style="fill:#68D1FA;" d="M198.943,199.427c-10.718-0.903-21.441,1.003-32.22,2.056c-1.48,0.145-2.934,0.61-4.385,0.984
		c-1.22,0.315-2.176-0.268-2.528-1.216c-0.383-1.031,0.889-1.125,1.504-1.393c7.798-3.409,15.975-5.562,24.24-7.525
		c7.004-1.663,14.006-3.334,21.115-4.404c10.111-1.522,20.316-3.15,30.495-1.093c5.017,1.014,9.846,3.057,14.679,4.854
		c7.041,2.618,14.074,5.278,20.8,8.66c2.31,1.162,4.592,2.379,6.878,3.589c0.773,0.409,1.14,1.054,0.946,1.951
		c-0.231,1.069-1.092,1.021-1.865,0.969c-4.113-0.276-7.891-2.056-11.916-2.707c-5.931-0.959-11.859-1.997-17.827-2.644
		c-4-0.434-7.943-1.356-12.021-1.257c-3.95,0.097-7.908-0.254-11.863-0.242C216.349,200.036,207.764,198.74,198.943,199.427z"/>
	<path style="fill:#68D1FA;" d="M105.012,405.246c0.141-8.251,0.318-14.325,2.384-20.145c0.4-1.127,1.03-2.172,1.532-3.265
		c0.447-0.972,0.751-2.37,2.063-2.125c1.252,0.233,1.585,1.612,1.622,2.773c0.084,2.633,0.056,5.27,0.039,7.905
		c-0.05,8.191,1.606,16.119,3.729,23.966c4.19,15.483,11.491,29.453,20.977,42.294c3.537,4.789,7.096,9.604,11.554,13.642
		c0.757,0.686,1.916,1.484,1.084,2.716c-0.91,1.347-2.125,0.289-2.874-0.193c-4.448-2.863-9.024-5.541-13.025-9.068
		c-9.708-8.559-17.099-18.899-22.27-30.627C107.653,423.647,104.764,413.665,105.012,405.246z"/>
	<path style="fill:#68D1FA;" d="M7.174,389.816c-0.203-5.076-0.322-11.667,0.465-18.172c1.002-8.28,1.89-16.596,4.007-24.715
		c0.999-3.832,1.622-7.763,2.425-11.647c0.148-0.718,0.307-1.552,1.291-1.413c0.977,0.137,0.96,1.008,0.875,1.72
		c-1.029,8.641-0.032,17.247,0.315,25.873c0.378,9.401-1.296,18.748-1.06,28.167c0.293,11.684,0.611,23.385,3.001,34.852
		c2.453,11.772,5.342,23.454,11.505,34.014c0.832,1.425,1.135,3.158,1.682,4.749c0.179,0.52,0.103,0.982-0.429,1.224
		c-0.735,0.334-1.336,0.009-1.716-0.595c-4.319-6.873-8.759-13.666-11.892-21.22c-2.779-6.701-4.911-13.62-6.504-20.649
		c-1.575-6.955-2.514-14.057-3.326-21.171C7.45,397.647,7.197,394.493,7.174,389.816z"/>
	<path style="fill:#68D1FA;" d="M127.842,269.357c0.886-4.95,3.61-9.153,8.492-11.911c6.242-3.525,12.977-5.343,20.1-5.807
		c0.799-0.052,1.713,0.04,2.049,0.82c0.399,0.927-0.47,1.485-1.131,1.797c-5.836,2.753-10.156,6.939-13.611,12.466
		c-2.691,4.305-7.512,6.701-11.587,9.66c-1.954,1.419-3.264-0.319-3.76-2.176C128.026,272.831,128.051,271.35,127.842,269.357z"/>
	<path style="fill:#68D1FA;" d="M171.083,471.237c-6.567-1.022-12.224-4.01-17.334-8.168c-1.444-1.175-2.88-2.362-4.287-3.581
		c-0.493-0.427-0.676-1.021-0.286-1.627c0.304-0.474,0.854-0.592,1.285-0.354c7.89,4.378,15.438,1.834,23.113-0.856
		c4.603-1.613,7.294-0.48,8.954,2.843c1.44,2.883-0.064,6.932-3.394,9.403C176.733,470.681,174.024,471.195,171.083,471.237z"/>
	<path style="fill:#68D1FA;" d="M320.501,462.332c1.278,6.568-1.242,12.464-3.173,18.493c-0.926,2.89-2.467,3.728-5.291,2.627
		c-1.474-0.575-2.956,0.098-4.395,0.536c-0.648,0.197-1.355,0.358-1.834-0.271c-0.447-0.587-0.301-1.281,0.035-1.884
		c5.27-9.45,8.038-19.923,12.207-29.823c0.512-1.216,1.132-2.387,1.667-3.595c0.299-0.674,0.865-0.969,1.455-0.721
		c0.984,0.414,1.529,1.236,1.727,2.339c0.261,1.448-1.291,2.335-1.051,3.743c-0.604,1.17-2.325,1.568-2.229,3.222
		c-1.308,1.469-0.983,2.786,0.372,4.008C320.162,461.448,320.332,461.89,320.501,462.332z"/>
	<path style="fill:#68D1FA;" d="M181.857,537.204c-6.464-0.45-12.195-1.887-17.946-3.15c-4.69-1.03-9.322-2.326-13.969-3.544
		c-0.578-0.151-1.534-0.256-1.235-1.195c0.265-0.831,1.11-0.521,1.738-0.43c7.109,1.034,14.201,0.916,21.327,0.031
		c2.971-0.369,6.047-0.525,9.013,0.146c4.812,1.089,9.727,0.582,14.567,1.144c0.681,0.079,1.384,0.044,1.591,0.87
		c0.165,0.656-0.309,1.106-0.809,1.252C191.145,533.788,186.643,536.758,181.857,537.204z"/>
	<path style="fill:#68D1FA;" d="M182.926,491.887c-5.376-0.499-10.18-2.553-14.637-5.536c-1.149-0.769-2.291-1.549-3.437-2.323
		c-0.572-0.386-1.508-0.604-1.182-1.538c0.311-0.891,1.207-0.951,2.002-0.799c4.207,0.804,8.399,1.477,12.603-0.044
		c2.255-0.816,4.502-1.685,6.813-2.305c3.458-0.928,6.375,0.375,7.556,3.245c1.37,3.331-0.728,5.33-2.959,7.171
		C187.754,491.353,185.469,492.015,182.926,491.887z"/>
	<path style="fill:#68D1FA;" d="M153.374,454.926c-4.439-0.95-8.125-3.309-10.897-6.808c-2.376-3-4.269-6.383-6.364-9.604
		c-0.325-0.5-0.353-1.047,0.104-1.487c0.509-0.49,1.028-0.226,1.45,0.145c5.196,4.578,11.795,4.955,18.145,6.019
		c3.482,0.583,5.439,2.505,5.677,6.546c0.168,2.864-2.298,3.484-4.44,4.154C155.856,454.262,154.769,455.056,153.374,454.926z"/>
	<path style="fill:#68D1FA;" d="M153.136,287.781c-0.169,0.201-0.321,0.453-0.536,0.629c-10.87,8.859-18.746,20.055-25.236,32.332
		c-0.367,0.695-0.813,1.277-1.688,0.946c-0.826-0.311-0.48-0.969-0.323-1.54c2.128-7.732,4.918-15.132,9.324-21.951
		c2.971-4.598,7.577-6.527,12.001-8.911c1.48-0.797,2.996-1.546,4.554-2.173C151.84,286.868,152.683,286.796,153.136,287.781z"/>
	<path style="fill:#68D1FA;" d="M106.072,298.617c3.085-0.014,3.943,1.207,2.623,3.892c-1.988,4.042-4.074,8.037-6.081,12.07
		c-1.193,2.398-2.706,2.562-4.342,0.564c-2.014-2.46-3.255-5.312-2.24-8.494C97.567,301.831,100.66,298.711,106.072,298.617z"/>
	<path style="fill:#68D1FA;" d="M224.887,479.862c-3.455,0.006-6.059-2.619-6.013-6.063c0.043-3.201,2.61-5.922,5.597-5.933
		c2.919-0.011,6.393,3.281,6.364,6.031C230.805,476.84,227.796,479.857,224.887,479.862z"/>
	<path style="fill:#68D1FA;" d="M171.653,505.608c-3.338-0.005-6.374-2.364-6.358-4.94c0.017-2.735,3.796-5.978,6.977-5.988
		c2.783-0.008,4.991,2.474,4.946,5.56C177.165,503.806,175.291,505.613,171.653,505.608z"/>
	<path style="fill:#68D1FA;" d="M241.586,276.528c3.775-0.297,7.137,1.376,10.614,2.389c2.203,0.642,4.404,1.157,6.65,1.565
		c1.153,0.21,2.843,0.371,2.65,1.829c-0.218,1.648-1.817,0.951-2.977,0.861c-7.37-0.57-14.638-1.785-21.845-3.395
		c-0.889-0.198-2.178,0.016-2.155-1.358c0.025-1.475,1.294-1.502,2.395-1.578C238.473,276.735,240.029,276.633,241.586,276.528z"/>
	<path style="fill:#68D1FA;" d="M92.126,340.273c1.774-0.237,2.784,0.681,2.404,2.592c-0.432,2.176,0.213,5.336-3.031,5.662
		c-2.381,0.239-3.807-1.568-3.833-4.047C87.639,341.863,89.34,340.254,92.126,340.273z"/>
	<path style="fill:#68D1FA;" d="M114.953,269.194c2.095,0.105,3.347,1.601,3.451,3.779c0.113,2.37-1.547,3.814-3.736,3.789
		c-2.184-0.025-3.72-1.553-3.764-3.855C110.86,270.567,112.175,269.238,114.953,269.194z"/>
	<path style="fill:#68D1FA;" d="M147.383,496.353c0.218-2.343,1.172-4.087,3.415-4.106c2.172-0.019,3.508,1.516,3.549,3.741
		c0.041,2.176-1.369,3.319-3.391,3.406C148.865,499.482,147.706,498.222,147.383,496.353z"/>
	<path style="fill:#9BE2FE;" d="M319.62,456.998c0.124,1.336,0.248,2.672,0.372,4.008
		C318.638,459.784,318.312,458.467,319.62,456.998z"/>
</g>
</svg>
