<svg xmlns="http://www.w3.org/2000/svg" xmlns:xlink="http://www.w3.org/1999/xlink" version="1.1" id="Capa_1" x="0px" y="0px" viewBox="0 0 1920 1080" enable-background="new 0 0 1920 1080" xml:space="preserve">
<path fill="#9A7E5C" d="M163.6,907.6c5.3,2.4,10.3,4.6,20.6,4.6c10.3,0,15.3-2.2,20.7-4.6c5.8-2.6,11.8-5.2,23.6-5.2  c11.8,0,17.8,2.7,23.6,5.2c5.3,2.4,10.3,4.6,20.6,4.6c10.3,0,15.3-2.2,20.7-4.6c5.8-2.6,11.8-5.2,23.6-5.2c11.8,0,17.8,2.7,23.6,5.2  c5.3,2.4,10.3,4.6,20.6,4.6c10.3,0,15.3-2.2,20.7-4.6c5.8-2.6,11.8-5.2,23.6-5.2c11.8,0,17.8,2.7,23.6,5.2  c5.3,2.4,10.3,4.6,20.6,4.6c10.3,0,15.3-2.2,20.7-4.6c5.8-2.6,11.8-5.2,23.6-5.2c11.8,0,17.8,2.7,23.6,5.2  c5.3,2.4,10.3,4.6,20.6,4.6c10.3,0,15.3-2.2,20.7-4.6c5.8-2.6,11.8-5.2,23.6-5.2c5.1,0,9,0.5,12.4,1.2V703.1H140.5v199.3  C152,902.4,157.9,905.1,163.6,907.6z"/>
<path fill="#9A7E5C" d="M605.9,907.6c5.3,2.4,10.3,4.6,20.6,4.6c10.3,0,15.3-2.2,20.7-4.6c5.8-2.6,11.8-5.2,23.6-5.2  c11.8,0,17.8,2.7,23.6,5.2c5.3,2.4,10.3,4.6,20.6,4.6c10.3,0,15.3-2.2,20.7-4.6c5.8-2.6,11.8-5.2,23.6-5.2c11.8,0,17.8,2.7,23.6,5.2  c5.3,2.4,10.3,4.6,20.6,4.6c10.3,0,15.3-2.2,20.7-4.6c5.8-2.6,11.8-5.2,23.6-5.2c11.8,0,17.8,2.7,23.6,5.2  c5.3,2.4,10.3,4.6,20.6,4.6c10.3,0,15.3-2.2,20.7-4.6c5.8-2.6,11.8-5.2,23.6-5.2c11.8,0,17.8,2.7,23.6,5.2  c5.3,2.4,10.3,4.6,20.6,4.6c10.3,0,15.3-2.2,20.7-4.6c5.8-2.6,11.8-5.2,23.6-5.2c5.1,0,9,0.5,12.4,1.2V703.1H582.8v199.3  C594.3,902.4,600.2,905.1,605.9,907.6z"/>
<path fill="#9A7E5C" d="M1048.2,907.6c5.3,2.4,10.3,4.6,20.6,4.6c10.3,0,15.3-2.2,20.7-4.6c5.8-2.6,11.8-5.2,23.6-5.2  c11.8,0,17.8,2.7,23.6,5.2c5.3,2.4,10.3,4.6,20.6,4.6c10.3,0,15.3-2.2,20.7-4.6c5.8-2.6,11.8-5.2,23.6-5.2c11.8,0,17.8,2.7,23.6,5.2  c5.3,2.4,10.3,4.6,20.6,4.6c10.3,0,15.3-2.2,20.7-4.6c5.8-2.6,11.8-5.2,23.6-5.2c11.8,0,17.8,2.7,23.6,5.2  c5.3,2.4,10.3,4.6,20.6,4.6c10.3,0,15.3-2.2,20.7-4.6c5.8-2.6,11.8-5.2,23.6-5.2c11.8,0,17.8,2.7,23.6,5.2  c5.3,2.4,10.3,4.6,20.6,4.6c10.3,0,15.3-2.2,20.7-4.6c5.8-2.6,11.8-5.2,23.6-5.2c5.1,0,9,0.5,12.4,1.2V703.1h-454.3v199.3  C1036.6,902.4,1042.5,905.1,1048.2,907.6z"/>
<path fill="#9A7E5C" d="M1488.9,907.6c5.3,2.4,10.3,4.6,20.6,4.6c10.3,0,15.3-2.2,20.7-4.6c5.8-2.6,11.8-5.2,23.6-5.2  c11.8,0,17.8,2.7,23.6,5.2c5.3,2.4,10.3,4.6,20.6,4.6c10.3,0,15.3-2.2,20.7-4.6c5.8-2.6,11.8-5.2,23.6-5.2c11.8,0,17.8,2.7,23.6,5.2  c5.3,2.4,10.3,4.6,20.6,4.6c10.3,0,15.3-2.2,20.7-4.6c5.8-2.6,11.8-5.2,23.6-5.2c11.8,0,17.8,2.7,23.6,5.2  c5.3,2.4,10.3,4.6,20.6,4.6c10.3,0,15.3-2.2,20.7-4.6c5.8-2.6,11.8-5.2,23.6-5.2c11.8,0,17.8,2.7,23.6,5.2  c5.3,2.4,10.3,4.6,20.6,4.6c10.3,0,15.3-2.2,20.7-4.6c5.8-2.6,11.8-5.2,23.6-5.2c5.1,0,9,0.5,12.4,1.2V703.1h-454.2v199.3  C1477.3,902.4,1483.2,905.1,1488.9,907.6z"/>
<rect x="0" y="0" fill="#AFDEF8" width="1920" height="705.6"/>
<g>
	<polygon fill="#BDBBBA" points="1060.1,688 1060.1,701.2 1026.1,701.2 1026.1,688 1060.1,688  "/>
	<path fill="#A63D4B" d="M1034.6,788.5h-38.2v-34h24.2c2.9,0,5.2-2.3,5.2-5.2v-25.7h34v39.7C1059.8,777.2,1048.5,788.5,1034.6,788.5   L1034.6,788.5z"/>
	<path fill="#DE4E58" d="M974,764h46.6c8.1,0,14.7-6.6,14.7-14.7V688h15v75.3c0,8.7-7,15.7-15.7,15.7H974L974,764L974,764L974,764z"/>
	<polygon fill="#D6D4D4" points="1060.1,688 1060.1,702.1 1049.8,702.1 1049.8,688 1060.1,688  "/>
	<polygon fill="#A29F9D" points="1035.9,688 1035.9,702.1 1026.9,702.1 1026.9,688 1035.9,688  "/>
	<path fill="#A63D4B" d="M1034.6,788.5h-38.2V779h38.2c8.7,0,15.7-7,15.7-15.7v-39.7h9.5v39.7   C1059.8,777.2,1048.5,788.5,1034.6,788.5L1034.6,788.5z"/>
	<polygon fill="#D6D4D4" points="974,754.5 974,751.9 982,751.9 982,754.5 982,788.5 982,791.1 974,791.1 974,788.5 974,754.5  "/>
	<polygon fill="#D6D4D4" points="1026.1,709.2 1023.5,709.2 1023.5,701.2 1026.1,701.2 1060.1,701.2 1062.6,701.2 1062.6,709.2    1060.1,709.2 1026.1,709.2  "/>
	<polygon fill="#EDEDED" points="996.4,793.7 982,793.7 982,749.4 996.4,749.4 996.4,754.5 996.4,788.5 996.4,793.7  "/>
	<polygon fill="#D6D4D4" points="996.4,761.2 982,761.2 982,749.4 996.4,749.4 996.4,750.8 996.4,759.8 996.4,761.2  "/>
	<polygon fill="#EDEDED" points="1059.8,723.5 1025.8,723.5 1020.9,723.5 1020.9,709.2 1023.5,709.2 1026.1,709.2 1060.1,709.2    1062.6,709.2 1065.2,709.2 1065.2,723.5 1059.8,723.5  "/>
	<polygon fill="#D6D4D4" points="1020.9,723.5 1020.9,709.2 1032.7,709.2 1032.7,723.5 1031.4,723.5 1022.3,723.5 1020.9,723.5  "/>
	<path fill="#E6E6E6" d="M1015.9,780.8c0-1.3,1-2.3,2.3-2.3h16.4c8.4,0,15.3-6.8,15.3-15.3c0-1.3,1-2.3,2.3-2.3s2.3,1,2.3,2.3   c0,10.9-8.9,19.8-19.8,19.8h-16.4C1016.9,783.1,1015.9,782.1,1015.9,780.8L1015.9,780.8z"/>
	<path fill="#FFFFFF" d="M985.7,787.4c0-1.3,1-2.3,2.3-2.3h2.5c1.3,0,2.3,1,2.3,2.3c0,1.3-1,2.3-2.3,2.3H988   C986.7,789.7,985.7,788.7,985.7,787.4L985.7,787.4z"/>
	<path fill="#E6E6E6" d="M1013.1,780.8c0,1.3-1,2.3-2.3,2.3c-1.3,0-2.3-1-2.3-2.3c0-1.3,1-2.3,2.3-2.3   C1012.1,778.5,1013.1,779.6,1013.1,780.8L1013.1,780.8z"/>
	<path fill="#343434" d="M1020.6,752.2h-21.9v-2.8c0-1.3-1-2.3-2.3-2.3H982c-1.3,0-2.3,1-2.3,2.3v0.2H974c-1.3,0-2.3,1-2.3,2.3v0.3   v4.6v29.4v4.6v0.3c0,1.3,1,2.3,2.3,2.3h5.7v0.4c0,1.3,1,2.3,2.3,2.3h14.4c1.3,0,2.3-1,2.3-2.3v-2.9h35.9   c15.2,0,27.5-12.3,27.5-27.5v-37.4h3.1c1.3,0,2.3-1,2.3-2.3v-14.4c0-1.3-1-2.3-2.3-2.3h-0.3v-5.7c0-1.3-1-2.3-2.3-2.3h-0.3V688   c0-1.3-1-2.3-2.3-2.3c-1.3,0-2.3,1-2.3,2.3v10.9h-29.4V688c0-1.3-1-2.3-2.3-2.3s-2.3,1-2.3,2.3v10.9h-0.3c-1.3,0-2.3,1-2.3,2.3v5.7   h-0.3c-1.3,0-2.3,1-2.3,2.3v14.4c0,1.3,1,2.3,2.3,2.3h2.6v23.4C1023.5,750.9,1022.2,752.2,1020.6,752.2z M1060.1,706.9   L1060.1,706.9l-34,0v0h-0.3v-3.4h34.5v3.4H1060.1z M1059.8,721.2h-34h-2.6v-9.8h39.7v9.8H1059.8z M976.3,788.8v-34.5h3.4v34.5   H976.3z M994.1,791.4h-9.8v-39.7h9.8v2.8v34V791.4z M1028.1,725.8h29.4v37.4c0,12.6-10.3,22.9-22.9,22.9h-35.9v-29.4h21.9   c4.1,0,7.5-3.4,7.5-7.5V725.8z"/>
</g>
<g>
	<path fill="#67B655" d="M940.6,622.4c-4-7-11.6-11.7-20.2-11.7s-16.2,4.7-20.2,11.7c4,7,11.6,11.7,20.2,11.7   C929,634,936.5,629.3,940.6,622.4z"/>
	<path fill="#43AE57" d="M940.6,622.4c-1.1-1.8-2.4-3.5-3.9-5c-4.2,4.1-10,6.7-16.3,6.7c-6.3,0-12.1-2.5-16.3-6.7   c-1.5,1.5-2.8,3.2-3.9,5c4,7,11.6,11.7,20.2,11.7C929,634,936.5,629.3,940.6,622.4z"/>
	<path fill="#67B655" d="M900.1,622.4c-4-7-11.6-11.7-20.2-11.7s-16.2,4.7-20.2,11.7c4,7,11.6,11.7,20.2,11.7   C888.6,634,896.1,629.3,900.1,622.4z"/>
	<path fill="#43AE57" d="M900.1,622.4c-1.1-1.8-2.4-3.5-3.9-5c-4.2,4.1-10,6.7-16.3,6.7c-6.3,0-12.1-2.5-16.3-6.7   c-1.5,1.5-2.8,3.2-3.9,5c4,7,11.6,11.7,20.2,11.7S896.1,629.3,900.1,622.4z"/>
	<path fill="#F1884B" d="M944.5,535.8c-3.2-9.9-12.3-16.1-22.2-16.1c-3-9.3-11.8-16.1-22.2-16.1s-19.1,6.8-22.2,16.1   c-9.8,0-19,6.3-22.2,16.1c-3.2,9.9,0.5,20.3,8.5,26.1c-3,9.3,0.1,20,8.5,26.1c8.4,6.1,19.5,5.8,27.4,0c7.9,5.8,19,6.1,27.4,0   s11.5-16.7,8.5-26.1C944,556.1,947.7,545.7,944.5,535.8z"/>
	<g>
		<path fill="#ED6D30" d="M944.5,535.8c-3.1-9.6-11.9-15.8-21.4-16.1c-0.4,0-0.8-0.3-1-0.7c-3.2-9-11.8-15.4-21.9-15.4    c0,0,0,0-0.1,0c-1.1,0-1.4,1.6-0.4,2c5.8,2.6,10.3,7.4,12.4,13.4c0.1,0.4,0.5,0.7,1,0.7c9.5,0.3,18.3,6.5,21.4,16.1    c3.1,9.6-0.3,19.8-7.9,25.6c-0.3,0.3-0.5,0.7-0.4,1.1c2.7,9.2-0.5,19.4-8.7,25.4c-1.3,1-2.7,1.8-4.2,2.4c-1,0.5-0.7,2,0.5,2    c4.8,0,9.6-1.4,13.7-4.4c8.2-5.9,11.3-16.2,8.7-25.4c-0.1-0.4,0-0.9,0.4-1.1C944.1,555.6,947.6,545.4,944.5,535.8z"/>
		<path fill="#ED6D30" d="M900.1,539.3c-1.3,0-2.4-1.1-2.4-2.4v-7.8c0-1.3,1.1-2.4,2.4-2.4s2.4,1.1,2.4,2.4v7.8    C902.5,538.2,901.4,539.3,900.1,539.3z"/>
		<path fill="#ED6D30" d="M887.5,548.5c-0.2,0-0.5,0-0.7-0.1l-7.4-2.4c-1.3-0.4-1.9-1.8-1.5-3c0.4-1.3,1.8-1.9,3-1.5l7.4,2.4    c1.3,0.4,1.9,1.8,1.5,3C889.4,547.9,888.5,548.5,887.5,548.5z"/>
		<path fill="#ED6D30" d="M887.7,569.7c-0.5,0-1-0.1-1.4-0.5c-1.1-0.8-1.3-2.3-0.5-3.3l4.6-6.3c0.8-1.1,2.3-1.3,3.3-0.5    c1.1,0.8,1.3,2.3,0.5,3.3l-4.6,6.3C889.2,569.4,888.5,569.7,887.7,569.7z"/>
		<path fill="#ED6D30" d="M912.5,569.7c-0.7,0-1.5-0.3-1.9-1l-4.6-6.3c-0.8-1.1-0.5-2.6,0.5-3.3c1.1-0.8,2.6-0.5,3.3,0.5l4.6,6.3    c0.8,1.1,0.5,2.6-0.5,3.3C913.5,569.5,913,569.7,912.5,569.7z"/>
		<path fill="#ED6D30" d="M912.8,548.5c-1,0-1.9-0.6-2.3-1.6c-0.4-1.3,0.3-2.6,1.5-3l7.4-2.4c1.3-0.4,2.6,0.3,3,1.5    c0.4,1.3-0.3,2.6-1.5,3l-7.4,2.4C913.3,548.5,913,548.5,912.8,548.5z"/>
	</g>
	<circle fill="#FFD44A" cx="900.1" cy="550.2" r="13.3"/>
	<path fill="#FBBD35" d="M900.1,536.9c-1.8,0-3.5,0.3-5,1c4.9,2,8.3,6.8,8.3,12.3c0,5.6-3.4,10.4-8.3,12.3c1.5,0.6,3.2,1,5,1   c7.4,0,13.3-6,13.3-13.3C913.5,542.9,907.5,536.9,900.1,536.9z"/>
	<path fill="#343434" d="M920.3,608.3c-6.7,0-13.1,2.6-17.8,7.2v-23.4c3.6,1.8,7.4,2.6,11.3,2.6c5.3,0,10.6-1.6,15.1-4.9   c8.6-6.2,12.4-16.9,9.8-27.1c8.1-6.7,11.3-17.6,8-27.7c-3.3-10.1-12.3-17-22.7-17.7c-3.9-9.7-13.3-16.2-23.9-16.2   c-10.6,0-20,6.4-23.9,16.2c-10.5,0.7-19.5,7.6-22.7,17.7c-3.3,10.1-0.1,21,8,27.7c-2.6,10.2,1.2,20.9,9.8,27.1   c7.8,5.7,18,6.4,26.4,2.3v23.4c-4.7-4.5-11.1-7.2-17.8-7.2c-9.1,0-17.7,4.9-22.2,12.8c-0.4,0.7-0.4,1.6,0,2.4   c4.6,7.9,13.1,12.8,22.2,12.8c6.7,0,13.1-2.6,17.8-7.2V678c0,1.3,1.1,2.4,2.4,2.4s2.4-1.1,2.4-2.4v-48.8c4.7,4.5,11.1,7.2,17.8,7.2   c9.1,0,17.7-4.9,22.2-12.8c0.4-0.7,0.4-1.6,0-2.4C938,613.3,929.5,608.3,920.3,608.3z M874.1,586c-7.4-5.3-10.4-14.7-7.6-23.4   c0.3-1,0-2.1-0.9-2.7c-7.4-5.3-10.4-14.7-7.6-23.4c2.8-8.7,10.8-14.5,19.9-14.5c0,0,0,0,0,0c1,0,1.9-0.7,2.3-1.6   c2.8-8.6,10.8-14.5,19.9-14.5s17.1,5.8,19.9,14.5c0.3,1,1.2,1.6,2.3,1.6c0,0,0,0,0,0c9.1,0,17.1,5.8,19.9,14.5l0,0   c2.8,8.7-0.2,18.1-7.6,23.4c-0.8,0.6-1.2,1.7-0.9,2.7c2.8,8.6-0.2,18-7.6,23.4c-7.4,5.3-17.2,5.3-24.6,0c0,0,0,0,0,0   c-0.1-0.1-0.2-0.1-0.3-0.2c0,0,0,0,0,0c-0.1,0-0.2-0.1-0.3-0.1c0,0,0,0,0,0c-0.1,0-0.2-0.1-0.3-0.1c0,0,0,0-0.1,0   c-0.1,0-0.2,0-0.3,0l0,0l0,0h0c-0.1,0-0.2,0-0.3,0c0,0,0,0-0.1,0c-0.1,0-0.2,0-0.3,0.1c0,0,0,0,0,0c-0.1,0-0.2,0.1-0.3,0.1   c0,0,0,0,0,0c-0.1,0.1-0.2,0.1-0.3,0.2c0,0,0,0,0,0C891.4,591.4,881.5,591.4,874.1,586z M879.9,631.6c-7,0-13.5-3.5-17.4-9.3   c3.9-5.8,10.4-9.3,17.4-9.3c5.9,0,11.6,2.6,15.5,6.9h-18.6c-1.3,0-2.4,1.1-2.4,2.4s1.1,2.4,2.4,2.4h18.6   C891.5,629.1,885.9,631.6,879.9,631.6z M920.3,631.6c-5.9,0-11.6-2.6-15.5-6.9h18.6c1.3,0,2.4-1.1,2.4-2.4s-1.1-2.4-2.4-2.4h-18.6   c3.9-4.3,9.6-6.9,15.5-6.9c7,0,13.5,3.5,17.4,9.3C933.8,628.1,927.3,631.6,920.3,631.6z"/>
	<path fill="#010202" d="M900.1,565.9c2.6,0,5-0.6,7.2-1.8l3.3,4.5c0.5,0.6,1.2,1,1.9,1c0.5,0,1-0.1,1.4-0.5   c1.1-0.8,1.3-2.3,0.5-3.3l-3.3-4.5c2.9-2.8,4.7-6.8,4.7-11.1c0-0.9-0.1-1.7-0.2-2.5l5.3-1.7c1.3-0.4,1.9-1.8,1.5-3   c-0.4-1.3-1.8-1.9-3-1.5l-5.3,1.7c-2.2-4.4-6.5-7.7-11.6-8.5v-5.6c0-1.3-1.1-2.4-2.4-2.4c-1.3,0-2.4,1.1-2.4,2.4v5.6   c-0.3,0-0.5,0.1-0.7,0.1c-1.3,0.3-2.1,1.5-1.9,2.8c0.3,1.3,1.5,2.1,2.8,1.9c0.7-0.1,1.5-0.2,2.2-0.2c6,0,10.9,4.9,10.9,10.9   c0,6-4.9,10.9-10.9,10.9c-6,0-10.9-4.9-10.9-10.9c0-2.1,0.6-4.1,1.7-5.9c0.7-1.1,0.4-2.6-0.7-3.3c-1.1-0.7-2.6-0.4-3.3,0.7   c-0.3,0.5-0.6,0.9-0.8,1.4l-5.3-1.7c-1.3-0.4-2.6,0.3-3,1.5c-0.4,1.3,0.3,2.6,1.5,3l5.3,1.7c-0.1,0.8-0.2,1.7-0.2,2.5   c0,4.4,1.8,8.3,4.7,11.1l-3.3,4.5c-0.8,1.1-0.5,2.6,0.5,3.3c0.4,0.3,0.9,0.5,1.4,0.5c0.7,0,1.5-0.3,1.9-1l3.3-4.5   C895.1,565.3,897.5,565.9,900.1,565.9z"/>
	<g>
		<path fill="#A6CB6A" d="M939.6,707.7v-1.2c0-12.6,6-24.5,16.3-32l0,0l0,0c-4.8,10.4-7.2,21.7-7.2,33.1v0.1L939.6,707.7    L939.6,707.7z"/>
		<path fill="#57B573" d="M941,695.8L941,695.8c0-8.3-4.8-15.8-12.2-19.4l-4-1.9l0.3,0.5c5.5,10,8.4,21.3,8.4,32.7l0,0h7.6V695.8z"/>
		<path fill="#D6E18E" d="M893.7,667.4L893.7,667.4c0-8.7,4.1-17,11.1-22.2l5.4-4l-0.9,2.6c-3.4,10.1-5.1,20.8-5.1,31.4l0,0    l-4.8,8.7L893.7,667.4z"/>
		<path fill="#57B573" d="M897,707.7v-2c0-20.8,9.9-40.3,26.8-52.6l0,0l0,0c-7.8,17.1-11.9,35.6-11.9,54.4v0.2H897z"/>
		<path fill="#A6CB6A" d="M897,707.7v-2c0-6,0.8-11.8,2.4-17.5l0,0c0-13.6-7.8-26.1-20.1-31.9l-6.6-3.2l0.4,0.8    c9.1,16.5,13.8,35,13.8,53.8l0,0H897z"/>
		<path fill="#57B573" d="M907.2,707.7L907.2,707.7c0-9.6,5-18.5,13.2-23.6l0.1-0.1l0,0c-2.7,7.2-4.1,14.9-4.1,22.7v1H907.2z"/>
		<path fill="#343434" d="M957.3,672.7c-0.8-0.7-2-0.7-2.9-0.1c-5.4,3.9-9.6,9-12.6,14.8c-2.2-5.6-6.4-10.4-12-13.1l-4-1.9    c-0.9-0.4-2.1-0.2-2.8,0.5c-0.7,0.8-0.9,1.9-0.4,2.8l0.3,0.5c4.9,8.9,7.7,19,8.1,29.2h-1.9v-1c0-2.4-0.9-4.6-2.6-6.3    c-0.9-0.9-2.4-0.9-3.4,0c-0.9,0.9-0.9,2.4,0,3.4c0.8,0.8,1.2,1.8,1.2,2.9v1h-5.4c0.2-7,1.5-13.9,3.9-20.4c0.4-1,0.1-2-0.7-2.7    c-0.8-0.6-1.9-0.7-2.8-0.2l-0.1,0.1c-0.9,0.6-1.8,1.2-2.7,1.9c1.9-10.3,5.1-20.3,9.5-29.8l0,0c0.5-1,0.2-2.2-0.7-2.8    c-0.8-0.7-2-0.7-2.9-0.1c-5.9,4.3-11.2,9.6-15.4,15.7c0.7-7.5,2.2-15,4.6-22.2l0.9-2.6c0.3-1,0-2.1-0.9-2.7c-0.8-0.6-2-0.6-2.8,0    l-5.4,4c-6.2,4.6-10.4,11.6-11.7,19.2c-3.2-3.5-7.1-6.3-11.4-8.4l-6.6-3.2c-0.9-0.4-2.1-0.2-2.8,0.5c-0.7,0.8-0.9,1.9-0.4,2.8    l0.4,0.8c8.5,15.4,13.1,32.7,13.5,50.3h-4.8l-0.1,1.2h74.7c-1-0.6-2.1-1-3.3-1.1c0.3-10.4,2.6-20.4,7-29.9    C958.5,674.5,958.2,673.3,957.3,672.7z M896.1,667.4c0-7.7,3.6-15,9.6-19.8c-2.6,9-3.8,18.3-3.8,27.7c0,0,0,0.1,0,0.1    c-0.5,0.9-0.9,1.9-1.3,2.8c-1-3.6-2.5-7-4.5-10.2C896,667.9,896.1,667.6,896.1,667.4z M894.6,705.3h-5.3    c-0.3-16.3-4.2-32.3-11.2-47l0.2,0.1c11.3,5.4,18.7,17,18.8,29.5C895.5,693.6,894.7,699.4,894.6,705.3z M904.9,705.3h-5.5    c0.1-16.6,6.8-32.4,18.3-43.9c-3.4,9.2-5.8,18.8-7.1,28.5c-0.7,1-1.4,2-2,3.1C906.5,696.8,905.3,701,904.9,705.3z M914.1,705.3    h-4.3c0.5-5.3,2.7-10.3,6.2-14.3C914.8,695.7,914.2,700.5,914.1,705.3z M937.2,705.3h-1.4c-0.3-8.7-2.2-17.4-5.7-25.4    c5.2,3.5,8.4,9.3,8.5,15.7C937.8,698.7,937.3,702,937.2,705.3z M946.2,705.3H942c0.2-7.9,3-15.5,7.8-21.6    C947.6,690.7,946.4,697.9,946.2,705.3z"/>
	</g>
	<g>
		<g>
			<path fill="#E6E6E6" d="M1057.5,707.5c3.7,0,6.7-3,6.7-6.7c0-1.9-0.8-3.5-2-4.8c-1.2-1.2-2.9-2-4.8-2h0h-28.2     c-3.7,0-6.7,3-6.7,6.7c0,1.9,0.8,3.5,2,4.8c1.2,1.2,2.9,2,4.8,2H1057.5z"/>
		</g>
		<path fill="#CDCCCC" d="M1034.5,700.8c0,1.9,0.8,3.5,2,4.8c1.2,1.2,2.9,2,4.8,2h-11.9c-1.9,0-3.5-0.8-4.8-2c-1.2-1.2-2-2.9-2-4.8    c0-3.7,3-6.7,6.7-6.7h11.9C1037.5,694.1,1034.5,697.1,1034.5,700.8z"/>
		<rect x="1029.7" y="421.2" fill="#A63D4B" width="26.6" height="269.9"/>
		<rect x="1035" y="421.2" fill="#DE4E58" width="15.9" height="269.9"/>
		<path fill="#E6E6E6" d="M1053.9,670v-91.3c0-1.6-1.3-3-3-3c-1.6,0-3,1.3-3,3V670c0,1.6,1.3,3,3,3    C1052.6,672.9,1053.9,671.6,1053.9,670z"/>
		<path fill="#343434" d="M1023.6,708.6h38.8c2.4-1.8,4-4.6,4-7.8c0-3.3-1.6-6.2-4.1-7.9V418.3h-38.4v274.6    c-2.5,1.8-4.1,4.7-4.1,7.9C1019.6,704,1021.2,706.8,1023.6,708.6z M1029.7,691.1V421.2h26.6v269.9H1029.7z M1029.3,704.6    c-2.1,0-3.8-1.7-3.8-3.8c0-2.1,1.7-3.7,3.7-3.8h27.4c2.1,0,3.7,1.7,3.7,3.8c0,2.1-1.7,3.8-3.8,3.8H1029.3z"/>
	</g>
	<g>
		<polygon fill="#BDBBBA" points="959.7,334 972.9,334 972.9,368 959.7,368 959.7,334   "/>
		<path fill="#A63D4B" d="M1060.2,359.5v38.2h-34v-24.2c0-2.9-2.3-5.2-5.2-5.2h-25.7v-34h39.7    C1048.9,334.3,1060.2,345.6,1060.2,359.5L1060.2,359.5z"/>
		<path fill="#DE4E58" d="M1035.7,420v-46.6c0-8.1-6.6-14.7-14.7-14.7h-61.3v-15h75.3c8.7,0,15.7,7,15.7,15.7V420L1035.7,420    L1035.7,420L1035.7,420z"/>
		<polygon fill="#D6D4D4" points="959.7,334 973.8,334 973.8,344.2 959.7,344.2 959.7,334   "/>
		<polygon fill="#A29F9D" points="959.7,358.2 973.8,358.2 973.8,367.1 959.7,367.1 959.7,358.2   "/>
		<path fill="#A63D4B" d="M1060.2,359.5v38.2h-9.5v-38.2c0-8.7-7-15.7-15.7-15.7h-39.7v-9.5h39.7    C1048.9,334.3,1060.2,345.6,1060.2,359.5L1060.2,359.5z"/>
		<polygon fill="#D6D4D4" points="1026.2,420 1023.6,420 1023.6,412.1 1026.2,412.1 1060.2,412.1 1062.8,412.1 1062.8,420     1060.2,420 1026.2,420   "/>
		<polygon fill="#D6D4D4" points="980.9,368 980.9,370.6 972.9,370.6 972.9,368 972.9,334 972.9,331.4 980.9,331.4 980.9,334     980.9,368   "/>
		<polygon fill="#EDEDED" points="1065.4,397.7 1065.4,412.1 1021.2,412.1 1021.2,397.7 1026.2,397.7 1060.2,397.7 1065.4,397.7       "/>
		<polygon fill="#D6D4D4" points="1033,397.7 1033,412.1 1021.2,412.1 1021.2,397.7 1022.5,397.7 1031.6,397.7 1033,397.7   "/>
		<polygon fill="#EDEDED" points="995.3,334.3 995.3,368.3 995.3,373.2 980.9,373.2 980.9,370.6 980.9,368 980.9,334 980.9,331.4     980.9,328.9 995.3,328.9 995.3,334.3   "/>
		<polygon fill="#D6D4D4" points="995.3,373.2 980.9,373.2 980.9,361.3 995.3,361.3 995.3,362.7 995.3,371.8 995.3,373.2   "/>
		<path fill="#E6E6E6" d="M1052.6,378.2c-1.3,0-2.3-1-2.3-2.3v-16.4c0-8.4-6.8-15.3-15.3-15.3c-1.3,0-2.3-1-2.3-2.3    c0-1.3,1-2.3,2.3-2.3c10.9,0,19.8,8.9,19.8,19.8v16.4C1054.8,377.2,1053.8,378.2,1052.6,378.2L1052.6,378.2z"/>
		<path fill="#FFFFFF" d="M1059.2,408.4c-1.3,0-2.3-1-2.3-2.3v-2.5c0-1.3,1-2.3,2.3-2.3s2.3,1,2.3,2.3v2.5    C1061.4,407.4,1060.4,408.4,1059.2,408.4L1059.2,408.4z"/>
		<path fill="#E6E6E6" d="M1052.5,381c1.3,0,2.3,1,2.3,2.3c0,1.3-1,2.3-2.3,2.3c-1.3,0-2.3-1-2.3-2.3    C1050.3,382,1051.3,381,1052.5,381L1052.5,381z"/>
		<path fill="#3B3735" d="M1023.9,373.5v21.9h-2.8c-1.3,0-2.3,1-2.3,2.3v14.4c0,1.3,1,2.3,2.3,2.3h0.2v5.7c0,1.3,1,2.3,2.3,2.3h0.3    h4.6h29.4h4.6h0.3c1.3,0,2.3-1,2.3-2.3v-5.7h0.4c1.3,0,2.3-1,2.3-2.3v-14.4c0-1.3-1-2.3-2.3-2.3h-2.9v-35.9    c0-15.2-12.3-27.5-27.5-27.5h-37.4v-3.1c0-1.3-1-2.3-2.3-2.3h-14.4c-1.3,0-2.3,1-2.3,2.3v0.3h-5.7c-1.3,0-2.3,1-2.3,2.3v0.3h-10.9    c-1.3,0-2.3,1-2.3,2.3c0,1.3,1,2.3,2.3,2.3h10.9v29.4h-10.9c-1.3,0-2.3,1-2.3,2.3c0,1.3,1,2.3,2.3,2.3h10.9v0.3    c0,1.3,1,2.3,2.3,2.3h5.7v0.3c0,1.3,1,2.3,2.3,2.3h14.4c1.3,0,2.3-1,2.3-2.3v-2.6h23.4C1022.6,370.6,1023.9,371.9,1023.9,373.5z     M978.6,334L978.6,334l0,34h0v0.3h-3.4v-34.5h3.4V334z M993,334.3v34v2.6h-9.8v-39.7h9.8V334.3z M1060.5,417.7h-34.5v-3.4h34.5    V417.7z M1063.1,400v9.8h-39.7V400h2.8h34H1063.1z M997.6,366v-29.4h37.4c12.6,0,22.9,10.3,22.9,22.9v35.9h-29.4v-21.9    c0-4.1-3.4-7.5-7.5-7.5H997.6z"/>
	</g>
	<path fill="#EDEDED" d="M929.9,362.8c-8.3,0-15.1,6.7-15.1,15.1l0,3.3l-24.2-0.1l0-3.3c0-21.7,17.7-39.2,39.4-39.2l3.7,0l-0.1,24.2   L929.9,362.8z"/>
	<path fill="#D6D4D4" d="M914.8,377.9c0-8.3,6.8-15.1,15.1-15.1l3.7,0l0-12.1l-3.7,0c-15,0-27.2,12.1-27.2,27.1l0,3.3l12.1,0   L914.8,377.9z"/>
	
		<rect x="948.2" y="312.7" transform="matrix(-1 -2.113969e-003 2.113969e-003 -1 1901.6727 640.1563)" fill="#D6D4D4" width="6" height="12.8"/>
	<g>
		
			<rect x="942.1" y="323.6" transform="matrix(-1 -2.113969e-003 2.113969e-003 -1 1901.6096 660.1743)" fill="#EDEDED" width="18.1" height="11"/>
		
			<rect x="930" y="332.7" transform="matrix(-1 -2.113969e-003 2.113969e-003 -1 1901.469 703.6046)" fill="#EDEDED" width="42.3" height="36.3"/>
		
			<rect x="924" y="305.5" transform="matrix(-1 -2.113969e-003 2.113969e-003 -1 1901.728 622.0286)" fill="#EDEDED" width="54.4" height="9.1"/>
	</g>
	<g>
		
			<rect x="969.3" y="305.5" transform="matrix(-1 -2.113969e-003 2.113969e-003 -1 1947.059 622.1726)" fill="#D6D4D4" width="9.1" height="9.1"/>
		
			<rect x="951.2" y="323.6" transform="matrix(-1 -2.113969e-003 2.113969e-003 -1 1910.6819 658.3149)" fill="#D6D4D4" width="9.1" height="9.1"/>
		
			<rect x="963.2" y="332.7" transform="matrix(-1 -2.113969e-003 2.113969e-003 -1 1934.7052 703.71)" fill="#D6D4D4" width="9.1" height="36.3"/>
	</g>
	
		<rect x="884.6" y="377.9" transform="matrix(-1 -2.113969e-003 2.113969e-003 -1 1804.5748 769.767)" fill="#EDEDED" width="36.3" height="12.1"/>
	
		<rect x="911.8" y="377.9" transform="matrix(-1 -2.113969e-003 2.113969e-003 -1 1831.7729 769.8532)" fill="#D6D4D4" width="9.1" height="12.1"/>
	<path fill="#010202" d="M960.2,339.8l-18.1,0c-1.1,0-2,0.9-2,2c0,1.1,0.9,2,2,2l18.1,0c1.1,0,2-0.9,2-2   C962.2,340.7,961.3,339.8,960.2,339.8z"/>
	<path fill="#010202" d="M960.2,357.9l-18.1,0c-1.1,0-2,0.9-2,2c0,1.1,0.9,2,2,2l18.1,0c1.1,0,2-0.9,2-2   C962.1,358.8,961.2,357.9,960.2,357.9z"/>
	<path fill="#010202" d="M935.9,350.8c0,1.1,0.9,2,2,2l26.4,0.1c1.1,0,2-0.9,2-2c0-1.1-0.9-2-2-2l-26.4-0.1   C936.8,348.8,935.9,349.7,935.9,350.8z"/>
	<g>
		<path fill="#010202" d="M974.2,364.9l0.1-28.1l0-4.1c0-1.1-0.9-2-2-2l-10.1,0l0-7.1c0-1.1-0.9-2-2-2l-4.1,0l0-5.1l22.2,0    c1.1,0,2-0.9,2-2l0-9.1c0-1.1-0.9-2-2-2l-54.4-0.1c-1.1,0-2,0.9-2,2l0,9.1c0,1.1,0.9,2,2,2l22.2,0l0,5.1l-4.1,0c-1.1,0-2,0.9-2,2    l0,7.1l-10.1,0c-1.1,0-2,0.9-2,2l0,4.1c-21.2,1-38.3,18-39.3,39.1l-4.1,0c-1.1,0-2,0.9-2,2l0,12.1c0,1.1,0.9,2,2,2l36.3,0.1    c1.1,0,2-0.9,2-2l0-12.1c0-1.1-0.9-2-2-2l-3.9,0c0.9-5.7,5.4-10.2,11-11l0,3.9c0,1.1,0.9,2,2,2l42.3,0.1c1.1,0,2-0.9,2-2    L974.2,364.9z M928,361c-7.8,0.9-14.1,7.1-15,15l-7.9,0c-1,0-1.9,0.8-2,1.8c0,0,0,0.1,0,0.1c0,0,0,0.1,0,0.1c0,1.1,0.9,2,2,2    l13.8,0l0,8.2l-32.3-0.1l0-8.2l8.7,0c1.1,0,2-0.9,2-2v0c0,0,0,0,0,0c0-1.1-0.9-2-2-2l-2.6,0c1-19,16.4-34.3,35.4-35.2L928,361z     M926,312.5l0-5.1l50.5,0.1l0,5.1l-22.2,0c0,0,0,0,0,0l-6,0c0,0,0,0,0,0L926,312.5z M952.2,316.5l0,5.1l-2.1,0l0-5.1L952.2,316.5z     M944.1,325.6L944.1,325.6l4.1,0c0,0,0,0,0,0l6,0c0,0,0,0,0,0l4.1,0l0,5.1l-14.2,0L944.1,325.6z M931.9,366.9l0-4.1c0,0,0,0,0,0    l0.1-24.2c0,0,0,0,0,0l0-4.1l10.1,0c0,0,0,0,0,0l18.1,0c0,0,0,0,0,0l10.1,0l-0.1,32.3L931.9,366.9z"/>
	</g>
	<g>
		<circle fill="#FFFFFF" stroke="#FECE48" stroke-width="3" stroke-miterlimit="10" cx="899.4" cy="448.2" r="41"/>
		<path fill="#FECE48" d="M899.4,416.1l31.4,31.4L899.4,479L868,447.5L899.4,416.1z"/>
		<path fill="#FBBD46" d="M899.4,457.8L868,447.5l31.5-31.4l31.5,31.4L899.4,457.8z"/>
		<path fill="#FFFFFF" d="M878.9,445.5h14.4l6.2-6.8l6.8,6.8h14.4l-21.2-22.9L878.9,445.5z"/>
		<path opacity="0.42" fill="#D9A648" enable-background="new    " d="M899.4,479v-62.9l31.4,31.4L899.4,479L899.4,479z"/>
	</g>
</g>
<rect x="1062.4" y="703.1" fill="#343434" width="857.6" height="7.9"/>
<path fill="#9A7E5C" d="M0,703.1v208.6c2.1,0.3,4.6,0.5,7.4,0.5c10.3,0,15.3-2.2,20.7-4.6c5.8-2.6,11.8-5.2,23.6-5.2  c11.8,0,17.8,2.7,23.6,5.2c5.3,2.4,10.3,4.6,20.6,4.6c10.3,0,15.3-2.2,20.7-4.6c5.8-2.6,11.8-5.2,23.6-5.2c5.1,0,9,0.5,12.4,1.2  V703.1H0z"/>
<g>
	
	
	<g>
		
	</g>
	
	
</g>
<g>
	<g>
		<path fill="#E6E6E6" d="M972.7,756.7c0-3.7-3-6.7-6.7-6.7c-1.9,0-3.5,0.8-4.8,2c-1.2,1.2-2,2.9-2,4.8v0v28.2c0,3.7,3,6.7,6.7,6.7    c1.9,0,3.5-0.8,4.8-2c1.2-1.2,2-2.9,2-4.8V756.7z"/>
	</g>
	<path fill="#CDCCCC" d="M966,779.7c1.9,0,3.5-0.8,4.8-2c1.2-1.2,2-2.9,2-4.8v11.9c0,1.9-0.8,3.5-2,4.8c-1.2,1.2-2.9,2-4.8,2   c-3.7,0-6.7-3-6.7-6.7V773C959.2,776.7,962.2,779.7,966,779.7z"/>
	<rect x="0" y="757.9" fill="#A63D4B" width="956.3" height="26.6"/>
	<rect x="0" y="763.3" fill="#DE4E58" width="956.3" height="15.9"/>
	<path fill="#E6E6E6" d="M942.3,760.3h-23.2c-1.6,0-3,1.3-3,3c0,1.6,1.3,3,3,3h23.2c1.6,0,3-1.3,3-3   C945.3,761.6,943.9,760.3,942.3,760.3z"/>
	<path fill="#343434" d="M973.7,790.6v-38.8c-1.8-2.4-4.6-4-7.8-4c-3.3,0-6.2,1.6-7.9,4.1H0v38.4h958c1.8,2.5,4.7,4.1,7.9,4.1   C969.2,794.6,972,793,973.7,790.6z M956.3,784.5H0V758h956.3V784.5z M969.7,784.9c0,2.1-1.7,3.8-3.8,3.8c-2.1,0-3.7-1.7-3.8-3.7   v-27.4c0-2.1,1.7-3.7,3.8-3.7c2.1,0,3.8,1.7,3.8,3.8V784.9z"/>
</g>
<rect x="0" y="703.1" fill="#343434" width="1023.6" height="7.9"/>
</svg>