<svg xmlns="http://www.w3.org/2000/svg" xmlns:xlink="http://www.w3.org/1999/xlink" version="1.1" id="Capa_1" x="0px" y="0px" viewBox="0 0 1920 1080" enable-background="new 0 0 1920 1080" xml:space="preserve">
<rect x="0" y="0" fill="#AFDEF8" width="1920" height="705.6"/>
<path fill="#9A7E5C" d="M1920,703.1h-150.9v199.3c11.5,0.1,17.4,2.7,23.1,5.2c5.3,2.4,10.3,4.6,20.6,4.6c10.3,0,15.3-2.2,20.7-4.6  c5.8-2.6,11.8-5.2,23.6-5.2c11.8,0,17.8,2.7,23.6,5.2c5.3,2.4,10.3,4.6,20.6,4.6c9.1,0,14-1.7,18.7-3.7V703.1z"/>
<g>
	<g>
		<rect x="776.6" y="650" fill="#D9E8F5" width="366.8" height="57.1"/>
	</g>
</g>
<polygon fill="#ADBBC3" points="837.3,703.1 974.4,703.1 963,653.9 848.7,653.9 "/>
<path fill="#8DB6C6" d="M807.9,376.8h3.1l7.2,53.8l4.2,31.8l1.3,9.6c0.2,1.3,0.5,2.6,0.8,3.8l6.4,11.3c3.1,3.4,7.1,5.9,11.5,7.4  c-5.5,1.3-10.6,2.7-15.4,4.4c-4.2,1.5-6.7,5.8-5.9,10.5c0.1,0.7,0.3,1.3,0.5,1.9c-13,16.4-12.4,33.2-12.4,33.9  c0.1,2.1,1.8,3.8,4,3.8l2.9,0c0.5,7,3.3,22.3,16.3,35.8c7.4,7.7,16.8,13.6,28.3,17.6L850.6,646h110.5L951,602.5  c11.4-4.1,20.9-9.9,28.3-17.6c12.9-13.4,15.8-28.5,16.4-35.6l2.9,0h0c2.1,0,3.9-1.7,4-3.8c0-0.7,0.6-17.7-12.6-34.1  c0.2-0.6,0.4-1.2,0.5-1.9c0.8-4.7-1.6-9-5.9-10.5c-4.7-1.6-9.8-3.1-15.2-4.3c9.8-3.3,17.3-11.9,18.8-22.6l10.7-80.3  c0.7,0.3,1.3,0.7,1.8,1.2c0.8,0.7,1.7,1,2.7,1c1.1,0,2.2-0.4,2.9-1.3c1.5-1.6,1.4-4.1-0.3-5.6c-1.6-1.5-3.7-2.6-6-3.4l0.9-6.7h1.4  c2.2,0,4-1.8,4-4l-23.6-29.6H827.5c-13,0-23.6,10.6-23.6,23.6v5.9C803.9,375.1,805.7,376.8,807.9,376.8z"/>
<path fill="#9A7E5C" d="M23.1,907.6c5.3,2.4,10.3,4.6,20.6,4.6c10.3,0,15.3-2.2,20.7-4.6c5.8-2.6,11.8-5.2,23.6-5.2  c11.8,0,17.8,2.7,23.6,5.2c5.3,2.4,10.3,4.6,20.6,4.6c10.3,0,15.3-2.2,20.7-4.6c5.8-2.6,11.8-5.2,23.6-5.2c11.8,0,17.8,2.7,23.6,5.2  c5.3,2.4,10.3,4.6,20.6,4.6c10.3,0,15.3-2.2,20.7-4.6c5.8-2.6,11.8-5.2,23.6-5.2c11.8,0,17.8,2.7,23.6,5.2  c5.3,2.4,10.3,4.6,20.6,4.6c10.3,0,15.3-2.2,20.7-4.6c5.8-2.6,11.8-5.2,23.6-5.2c11.8,0,17.8,2.7,23.6,5.2  c5.3,2.4,10.3,4.6,20.6,4.6c10.3,0,15.3-2.2,20.7-4.6c5.8-2.6,11.8-5.2,23.6-5.2c5.1,0,9,0.5,12.4,1.2V703.1H0v199.3  C11.5,902.4,17.4,905.1,23.1,907.6z"/>
<path fill="#9A7E5C" d="M465.4,907.6c5.3,2.4,10.3,4.6,20.6,4.6c10.3,0,15.3-2.2,20.7-4.6c5.8-2.6,11.8-5.2,23.6-5.2  c11.8,0,17.8,2.7,23.6,5.2c5.3,2.4,10.3,4.6,20.6,4.6c10.3,0,15.3-2.2,20.7-4.6c5.8-2.6,11.8-5.2,23.6-5.2c11.8,0,17.8,2.7,23.6,5.2  c5.3,2.4,10.3,4.6,20.6,4.6c10.3,0,15.3-2.2,20.7-4.6c5.8-2.6,11.8-5.2,23.6-5.2c11.8,0,17.8,2.7,23.6,5.2  c5.3,2.4,10.3,4.6,20.6,4.6c10.3,0,15.3-2.2,20.7-4.6c5.8-2.6,11.8-5.2,23.6-5.2c11.8,0,17.8,2.7,23.6,5.2  c5.3,2.4,10.3,4.6,20.6,4.6c10.3,0,15.3-2.2,20.7-4.6c5.8-2.6,11.8-5.2,23.6-5.2c5.1,0,9,0.5,12.4,1.2V703.1H442.3v199.3  C453.8,902.4,459.7,905.1,465.4,907.6z"/>
<path fill="#9A7E5C" d="M907.6,907.6c5.3,2.4,10.3,4.6,20.6,4.6c10.3,0,15.3-2.2,20.7-4.6c5.8-2.6,11.8-5.2,23.6-5.2  c11.8,0,17.8,2.7,23.6,5.2c5.3,2.4,10.3,4.6,20.6,4.6c10.3,0,15.3-2.2,20.7-4.6c5.8-2.6,11.8-5.2,23.6-5.2c11.8,0,17.8,2.7,23.6,5.2  c5.3,2.4,10.3,4.6,20.6,4.6c10.3,0,15.3-2.2,20.7-4.6c5.8-2.6,11.8-5.2,23.6-5.2c11.8,0,17.8,2.7,23.6,5.2  c5.3,2.4,10.3,4.6,20.6,4.6c10.3,0,15.3-2.2,20.7-4.6c5.8-2.6,11.8-5.2,23.6-5.2c11.8,0,17.8,2.7,23.6,5.2  c5.3,2.4,10.3,4.6,20.6,4.6c10.3,0,15.3-2.2,20.7-4.6c5.8-2.6,11.8-5.2,23.6-5.2c5.1,0,9,0.5,12.4,1.2V703.1H884.6v199.3  C896.1,902.4,902,905.1,907.6,907.6z"/>
<path fill="#9A7E5C" d="M1349.9,907.6c5.3,2.4,10.3,4.6,20.6,4.6c10.3,0,15.3-2.2,20.7-4.6c5.8-2.6,11.8-5.2,23.6-5.2  c11.8,0,17.8,2.7,23.6,5.2c5.3,2.4,10.3,4.6,20.6,4.6c10.3,0,15.3-2.2,20.7-4.6c5.8-2.6,11.8-5.2,23.6-5.2c11.8,0,17.8,2.7,23.6,5.2  c5.3,2.4,10.3,4.6,20.6,4.6c10.3,0,15.3-2.2,20.7-4.6c5.8-2.6,11.8-5.2,23.6-5.2c11.8,0,17.8,2.7,23.6,5.2  c5.3,2.4,10.3,4.6,20.6,4.6c10.3,0,15.3-2.2,20.7-4.6c5.8-2.6,11.8-5.2,23.6-5.2c11.8,0,17.8,2.7,23.6,5.2  c5.3,2.4,10.3,4.6,20.6,4.6c10.3,0,15.3-2.2,20.7-4.6c5.8-2.6,11.8-5.2,23.6-5.2c5.1,0,9,0.5,12.4,1.2V703.1h-454.3v199.3  C1338.3,902.4,1344.2,905.1,1349.9,907.6z"/>
<g>
	<g>
		<polygon fill="#ADBBC3" points="1134.4,647.3 1134.4,697.8 778.1,697.8 778.1,705.7 1144.9,705.7 1144.9,647.3   "/>
	</g>
</g>
<g>
	<path fill="#343434" d="M1143.4,711H776.6c-2.2,0-4-1.8-4-4v-57.1c0-2.2,1.8-4,4-4h366.8c2.2,0,4,1.8,4,4v57.1   C1147.4,709.3,1145.6,711,1143.4,711z M780.6,703.1h358.9v-49.2H780.6V703.1z"/>
</g>
<g>
	<path fill="#8DB6C6" d="M1113.3,422.9c-5.2,0-9.8,2.6-12.6,6.7v-0.2c0-6.1-4.9-11-11-11h-43.2c-6.1,0-11,4.9-11,11v2.2   c-2.5-5.1-7.7-8.6-13.7-8.6c-8.4,0-15.2,6.8-15.2,15.2c0,8.4,6.8,15.2,15.2,15.2c6,0,11.2-3.5,13.7-8.6v41.3c0,2.2,1.8,4,4,4h57.2   c2.2,0,4-1.8,4-4v-39.4c2.7,4,7.4,6.7,12.6,6.7c8.4,0,15.2-6.8,15.2-15.2C1128.5,429.7,1121.7,422.9,1113.3,422.9z"/>
</g>
<g>
	<polygon fill="#E5E5E4" points="927.1,593.4 846,593.4 819.9,705.9 953.1,705.9  "/>
</g>
<g>
	<path fill="#CDCCCC" d="M934.2,624.4c0.4,0.2,0.8,0.3,1.3,0.4l0,0l-5.6-19.3l-2.8-12.1l-0.7,0.2l-0.4-1.4   c-22.3,10.3-49.9,8.2-73,2.9c-3.3-0.8-5.8-2.3-7.5-4.4l-9.9,34c26.2-9.9,54.7-11.7,81.7-5.5l0.2,3.3c2.5,39.7-28.2,73.7-67.9,75.2   l-25.5,0.9l-4.1,7.2h133.2L934.2,624.4z"/>
</g>
<g>
	<path fill="#E5E5E4" d="M886.5,486c-36.2,0-60.8,4.3-77.5,10.2c-5.2,1.8-4,10.4,1.5,10.4h152.1c5.5,0,6.7-8.6,1.5-10.4   C947.3,490.2,922.7,486,886.5,486z"/>
</g>
<g>
	<path fill="#E5E5E4" d="M806,506.5c-12.9,15.6-12.1,32-12.1,32l185.4,0.2c0,0,0.7-16.5-12.3-32.2H806z"/>
</g>
<g>
	<path fill="#E5E5E4" d="M941.4,485.5H831.8c-11.9,0-21.9-8.8-23.5-20.6l-13.2-98.7h183l-13.2,98.7   C963.4,476.7,953.3,485.5,941.4,485.5z"/>
</g>
<g>
	<path fill="#E5E5E4" d="M983,366.2H788.6v-10.7c0-8.2,6.6-14.8,14.8-14.8h164.7c8.2,0,14.8,6.6,14.8,14.8V366.2z"/>
</g>
<g>
	<path fill="#CDCCCC" d="M982.4,359.8V350l-6.8-8.1v3.2c0,8.1-6.6,14.7-14.7,14.7H788.6v6.4h187h6.8h0.6v-6.4H982.4z"/>
</g>
<g>
	<path fill="#343434" d="M983,370.2H788.6c-2.2,0-4-1.8-4-4v-5.9c0-13,10.6-23.6,23.6-23.6h155.1c13,0,23.6,10.6,23.6,23.6v5.9   C986.9,368.4,985.2,370.2,983,370.2z M792.5,362.3H979v-1.9c0-8.6-7-15.7-15.7-15.7H808.2c-8.6,0-15.7,7-15.7,15.7V362.3z"/>
</g>
<g>
	<path fill="#CDCCCC" d="M976.9,371.1l-2.8-3.8v-1h-0.8l0,0c-0.1,0-0.2,0-0.3,0H797.5v9.2h170.3c-10.3,53.7-52,96.3-106,107.4   c15.1-0.1,30.2,1.4,45.3,2.3c13.7,0.8,29,1.9,42.2-2.1c6.4-1.9,11-6.3,16.1-10.3c-0.2-6.9,0.3-13.7,1.6-20.9   c2.2-11.8,3.6-23.8,5.8-35.6c2.1-11,4.3-21.9,5.2-33.1c0-0.2,0.1-0.4,0.1-0.6C976.4,379,976,374.9,976.9,371.1z"/>
</g>
<g>
	<path fill="#343434" d="M984.1,387.3c-1,0-1.9-0.3-2.7-1c-4.5-4.1-18.3-3.8-25.9-2.7c-2.2,0.3-4.2-1.2-4.5-3.3   c-0.3-2.2,1.2-4.2,3.3-4.5c2.4-0.4,23.7-3.4,32.4,4.6c1.6,1.5,1.7,4,0.3,5.6C986.2,386.8,985.1,387.3,984.1,387.3z"/>
</g>
<g>
	<path fill="#343434" d="M953.1,709.8H819.9c-1.2,0-2.4-0.6-3.1-1.5c-0.8-0.9-1-2.2-0.8-3.4l26.1-112.4c0.4-1.8,2-3.1,3.9-3.1h81.1   c1.8,0,3.5,1.3,3.9,3.1L957,705c0.3,1.2,0,2.4-0.8,3.4C955.5,709.3,954.3,709.8,953.1,709.8z M824.9,701.9h123.2l-24.2-104.5h-74.8   L824.9,701.9z"/>
</g>
<g>
	<path fill="#E5E5E4" d="M972.6,538.6c0,0,2.4,60.1-86,60.1s-85.9-59.9-85.9-59.9L972.6,538.6z"/>
</g>
<g>
	<path fill="#CDCCCC" d="M972.6,538.6l-10.6,0c0,0.1,0,0.1-0.1,0.2H800.6v11.1l15.7-1.1c46.8-3.2,93.7-2.9,140.4,1.1h0   c-9.7,15.9-31,32.9-78.1,32.9c-43.8,0-65.3-14.7-75.8-29.5c5.4,17.7,23.5,45.4,83.6,45.4C975,598.7,972.6,538.6,972.6,538.6z"/>
</g>
<g>
	<defs>
		<path id="SVGID_1_" d="M941.4,485.5H831.8c-11.9,0-21.9-8.8-23.5-20.6l-13.2-98.7h183l-13.2,98.7    C963.4,476.7,953.3,485.5,941.4,485.5z"/>
	</defs>
	<clipPath id="SVGID_2_">
		<use xlink:href="#SVGID_1_" overflow="visible"/>
	</clipPath>
</g>
<g>
	<path fill="#343434" d="M941.4,489.4H831.8c-13.8,0-25.6-10.3-27.4-24l-13.2-98.7c-0.2-1.1,0.2-2.3,1-3.1c0.8-0.9,1.8-1.4,3-1.4   h183c1.1,0,2.2,0.5,3,1.4c0.8,0.9,1.1,2,1,3.1l-13.2,98.7C967.1,479.1,955.3,489.4,941.4,489.4z M799.7,370.2l12.6,94.2   c1.3,9.8,9.7,17.1,19.6,17.1h109.7c9.8,0,18.3-7.4,19.6-17.1l12.6-94.2H799.7z"/>
</g>
<g>
	<path fill="#A9A9A9" d="M1024.8,425.3c6,10.8-5,21.8-15.8,15.8c-1.4-0.8-2.6-2-3.4-3.4c-6-10.8,5-21.8,15.8-15.8   C1022.9,422.7,1024.1,423.9,1024.8,425.3z"/>
</g>
<g>
	<path fill="#A9A9A9" d="M1116.2,425.3c6,10.8-5,21.8-15.8,15.8c-1.4-0.8-2.6-2-3.4-3.4c-6-10.8,5-21.8,15.8-15.8   C1114.3,422.7,1115.5,423.9,1116.2,425.3z"/>
</g>
<g>
	<path fill="#343434" d="M1015.3,446.8c-8.4,0-15.2-6.8-15.2-15.2c0-8.4,6.8-15.2,15.2-15.2c8.4,0,15.2,6.8,15.2,15.2   C1030.5,439.9,1023.7,446.8,1015.3,446.8z M1015.3,424.2c-4,0-7.3,3.3-7.3,7.3c0,4,3.3,7.3,7.3,7.3c4,0,7.3-3.3,7.3-7.3   C1022.5,427.5,1019.3,424.2,1015.3,424.2z"/>
</g>
<g>
	<path fill="#343434" d="M1106.7,446.8c-8.4,0-15.2-6.8-15.2-15.2c0-8.4,6.8-15.2,15.2-15.2c8.4,0,15.2,6.8,15.2,15.2   C1121.9,439.9,1115.1,446.8,1106.7,446.8z M1106.7,424.2c-4,0-7.3,3.3-7.3,7.3c0,4,3.3,7.3,7.3,7.3c4,0,7.3-3.3,7.3-7.3   C1114,427.5,1110.7,424.2,1106.7,424.2z"/>
</g>
<g>
	<path fill="#343434" d="M1095.4,435.5h-68.9c-2.2,0-4-1.8-4-4c0-2.2,1.8-4,4-4h68.9c2.2,0,4,1.8,4,4   C1099.4,433.7,1097.6,435.5,1095.4,435.5z"/>
</g>
<g>
	<path fill="#E5E5E4" d="M1090.1,479.5h-57.2V421c0-2.9,2.4-5.3,5.3-5.3h46.6c2.9,0,5.3,2.4,5.3,5.3V479.5z"/>
</g>
<g>
	<path fill="#CDCCCC" d="M964.4,506.7L964.4,506.7c-1.4,13.6-12.3,24.2-25.9,25.2l-66,5.1h108.2l-9.1-23.9L964.4,506.7z"/>
</g>
<g>
	<path fill="#343434" d="M886.5,602.7c-33.2,0-57.9-8.2-73.5-24.5c-17.1-17.9-16.4-38.7-16.4-39.6c0.1-2.1,1.8-3.8,4-3.8l171.9-0.2   c0,0,0,0,0,0c2.1,0,3.9,1.7,4,3.8c0,0.9,0.7,21.9-16.5,39.8C944.4,594.5,919.7,602.7,886.5,602.7z M804.8,542.8   c0.7,6.2,3.3,18.9,14.1,30.1c14,14.5,36.7,21.9,67.6,21.9c30.8,0,53.6-7.4,67.6-21.9c10.8-11.2,13.5-24,14.2-30.3L804.8,542.8z"/>
</g>
<g>
	<path fill="#343434" d="M979.3,542.6C979.3,542.6,979.3,542.6,979.3,542.6l-185.4-0.2c-2.1,0-3.9-1.7-4-3.8c0-0.7-0.7-18.1,13-34.7   c0.8-0.9,1.9-1.4,3.1-1.4h161c1.2,0,2.3,0.5,3.1,1.4c13.8,16.7,13.2,34.1,13.2,34.9C983.2,540.9,981.4,542.6,979.3,542.6z    M798.1,534.5l177,0.2c-0.6-5.1-2.7-14.7-10-24.2H808C800.8,519.9,798.7,529.4,798.1,534.5z"/>
</g>
<g>
	<path fill="#CDCCCC" d="M967,507.8h-160v-9.2h0c53.3,3.1,106.7,3.1,160,0h0V507.8z"/>
</g>
<g>
	<path fill="#343434" d="M962.6,510.5H810.4c-4.3,0-7.9-3.1-8.6-7.6c-0.8-4.7,1.6-9,5.9-10.5c19.6-6.9,46.1-10.4,78.9-10.4   c32.7,0,59.2,3.5,78.8,10.4c4.2,1.5,6.7,5.8,5.9,10.5C970.4,507.3,966.9,510.5,962.6,510.5z M886.5,489.9   c-31.9,0-57.5,3.3-76.2,9.9c-0.9,0.3-0.7,1.5-0.7,1.6c0.1,0.4,0.3,1,0.8,1h152.1c0.5,0,0.7-0.6,0.8-1c0-0.1,0.2-1.3-0.7-1.6   C944,493.3,918.3,489.9,886.5,489.9z"/>
</g>
<g>
	<path fill="#ECEBEC" d="M1090.1,434.2c0,0-15.8,45.7-41.8,45.7l41.8-0.4V434.2z"/>
</g>
<g>
	<path fill="#343434" d="M1090.1,483.4h-57.2c-2.2,0-4-1.8-4-4v-56.8c0-6.1,4.9-11,11-11h43.2c6.1,0,11,4.9,11,11v56.8   C1094.1,481.6,1092.3,483.4,1090.1,483.4z M1036.9,475.5h49.2v-52.8c0-1.7-1.4-3-3-3h-43.2c-1.7,0-3,1.4-3,3V475.5z"/>
</g>
<g>
	<path fill="#E6E6E6" d="M1026.1,750.4c1.9,0,3.5,0.8,4.8,2c1.2,1.2,2,2.9,2,4.8v28.2c0,3.7-3,6.7-6.7,6.7c-1.9,0-3.5-0.8-4.8-2   c-1.2-1.2-2-2.9-2-4.8v-28.2C1019.3,753.4,1022.3,750.4,1026.1,750.4z"/>
	<path fill="#E6E6E6" d="M920,889.4c-1.9,0-3.5-0.8-4.8-2c-0.6-0.6-1.1-1.3-1.4-2.2c-0.3-0.8-0.5-1.7-0.5-2.6v-28.2   c0-0.9,0.2-1.7,0.5-2.5h0c1-2.5,3.4-4.3,6.3-4.3c1.9,0,3.5,0.8,4.8,2c0.6,0.6,1.2,1.4,1.5,2.3c0.3,0.8,0.5,1.6,0.5,2.5v28.2   c0,0.9-0.2,1.8-0.5,2.6C925.2,887.7,922.8,889.4,920,889.4z"/>
	<path fill="#E6E6E6" d="M968.8,809.6c0.8,0,1.5,0.1,2.2,0.4c2.6,0.9,4.6,3.4,4.6,6.4c0,1.9-0.8,3.5-2,4.8c-0.7,0.7-1.6,1.3-2.6,1.6   c-0.7,0.2-1.4,0.4-2.2,0.4h-28.2c-0.8,0-1.5-0.1-2.2-0.4c-2.7-0.9-4.6-3.4-4.6-6.4c0-1.9,0.8-3.5,2-4.8c0.7-0.7,1.6-1.3,2.6-1.6   c0.7-0.2,1.4-0.4,2.2-0.4H968.8L968.8,809.6z"/>
	<path fill="#E6E6E6" d="M869,810.1c0.8-0.3,1.7-0.5,2.6-0.5h28.2c0.6,0,1.2,0.1,1.7,0.2c2.9,0.8,5,3.4,5,6.5c0,1.9-0.8,3.5-2,4.8   c-0.8,0.8-1.9,1.4-3,1.7c-0.6,0.1-1.1,0.2-1.7,0.2h-28.2c-0.9,0-1.8-0.2-2.6-0.5c-2.4-1-4.1-3.4-4.1-6.2c0-1.9,0.8-3.5,2-4.8   C867.5,810.9,868.2,810.4,869,810.1z"/>
	<path fill="#E6E6E6" d="M899.8,705.6c3.7,0,6.7,3,6.7,6.7c0,1.9-0.8,3.5-2,4.8c-1.2,1.2-2.9,2-4.8,2h0h-28.2c-3.7,0-6.7-3-6.7-6.7   c0-1.9,0.8-3.5,2-4.8c1.2-1.2,2.9-2,4.8-2H899.8z"/>
</g>
<path fill="#CDCCCC" d="M876.8,712.3c0-1.9,0.8-3.5,2-4.8c1.2-1.2,2.9-2,4.8-2h-11.9c-1.9,0-3.5,0.8-4.8,2c-1.2,1.2-2,2.9-2,4.8  c0,3.7,3,6.7,6.7,6.7h11.9C879.8,719,876.8,716,876.8,712.3z"/>
<path fill="#CDCCCC" d="M876.8,816.3c0-1.9,0.8-3.5,2-4.8c1.2-1.2,2.9-2,4.8-2h-11.9c-1.9,0-3.5,0.8-4.8,2c-1.2,1.2-2,2.9-2,4.8  c0,3.7,3,6.7,6.7,6.7h11.9C879.8,823,876.8,820,876.8,816.3z"/>
<path fill="#CDCCCC" d="M945.8,816.3c0-1.9,0.8-3.5,2-4.8c1.2-1.2,2.9-2,4.8-2h-11.9c-1.9,0-3.5,0.8-4.8,2c-1.2,1.2-2,2.9-2,4.8  c0,3.7,3,6.7,6.7,6.7h11.9C948.8,823,945.8,820,945.8,816.3z"/>
<path fill="#CDCCCC" d="M920,877.6c-1.9,0-3.5-0.8-4.8-2c-1.2-1.2-2-2.9-2-4.8v11.9c0,1.9,0.8,3.5,2,4.8c1.2,1.2,2.9,2,4.8,2  c3.7,0,6.7-3,6.7-6.7v-11.9C926.7,874.5,923.7,877.6,920,877.6z"/>
<path fill="#CDCCCC" d="M1026.1,780.2c-1.9,0-3.5-0.8-4.8-2c-1.2-1.2-2-2.9-2-4.8v11.9c0,1.9,0.8,3.5,2,4.8c1.2,1.2,2.9,2,4.8,2  c3.7,0,6.7-3,6.7-6.7v-11.9C1032.8,777.2,1029.8,780.2,1026.1,780.2z"/>
<path fill="#A63D4B" d="M910.3,881.7v-27.2c0-0.2,0-0.5,0-0.7c-7.1-3.6-11.7-11-11.7-19.1V826H872v8.7  C872,857.6,888.2,877.2,910.3,881.7z"/>
<rect x="872" y="722" fill="#A63D4B" width="26.6" height="84.6"/>
<path fill="#A63D4B" d="M968,826h-26.6v8.7c0,8.1-4.6,15.5-11.7,19.1c0,0.2,0,0.5,0,0.7v27.2c22.1-4.5,38.3-24.1,38.3-47V826z"/>
<path fill="#A63D4B" d="M1016.4,784.2v-26.6h-27c-26.5,0-48,21.5-48,48v0.9H968v-0.9c0-11.8,9.6-21.4,21.4-21.4H1016.4z"/>
<rect x="877.3" y="722" fill="#DE4E58" width="15.9" height="84.6"/>
<path fill="#DE4E58" d="M989.4,763c-23.5,0-42.7,19.1-42.7,42.7v0.9h15.9v-0.9c0-14.7,12-26.7,26.8-26.7h27V763H989.4z"/>
<path fill="#DE4E58" d="M962.7,834.7V826h-15.9v8.7c0,10.8-6.6,20.6-16.5,24.7c-0.2,0.1-0.4,0.2-0.5,0.3v16.6  C948.8,871.8,962.7,854.7,962.7,834.7z"/>
<path fill="#DE4E58" d="M909.8,859.4c-9.9-4.1-16.5-13.9-16.5-24.7V826h-15.9v8.7c0,20,13.9,37.1,33,41.5v-16.6  C910.1,859.6,909.9,859.5,909.8,859.4z"/>
<path fill="#E6E6E6" d="M1010.6,760h-21.2c-1.6,0-3,1.3-3,3c0,1.6,1.3,3,3,3h21.2c1.6,0,3-1.3,3-3  C1013.6,761.4,1012.3,760,1010.6,760z"/>
<circle fill="#E6E6E6" cx="893.3" cy="727.5" r="3"/>
<path fill="#E6E6E6" d="M893.3,733c-1.6,0-3,1.3-3,3v62.9c0,1.6,1.3,3,3,3c1.6,0,3-1.3,3-3V736C896.2,734.3,894.9,733,893.3,733z"/>
<path fill="#E6E6E6" d="M906.6,854.4c-6.5-4.5-10.4-11.8-10.4-19.6v-2.2c0-1.6-1.3-3-3-3c-1.6,0-3,1.3-3,3v2.2c0,9.8,4.9,19,13,24.6  c0.5,0.4,1.1,0.5,1.7,0.5c0.9,0,1.9-0.5,2.5-1.3C908.3,857.1,908,855.3,906.6,854.4z"/>
<g>
	<rect x="1037.3" y="757.9" fill="#A63D4B" width="882.7" height="26.6"/>
	<rect x="1037.3" y="763.3" fill="#DE4E58" width="882.7" height="15.9"/>
	<path fill="#343434" d="M1920,752h-885.7v38.4H1920V752z M1920,784.5h-882.7V758H1920V784.5z"/>
</g>
<path fill="#343434" d="M1034.3,752.1c-1.7-2.8-4.8-4.6-8.3-4.6c-3.3,0-6.3,1.7-8,4.3h-28.6c-29.7,0-53.9,24.2-53.9,53.9v2.4  c-2.7,1.7-4.6,4.8-4.6,8.2c0,3.5,1.8,6.5,4.6,8.2v10.2c0,5.7-3.2,10.9-8.1,13.6c-1.8-2.1-4.4-3.5-7.4-3.5c-3,0-5.6,1.3-7.4,3.5  c-4.9-2.7-8-7.9-8-13.6v-10c3-1.7,5-4.8,5-8.5c0-3.6-2-6.8-5-8.5v-87c3-1.7,5-4.8,5-8.5c0-5.3-4.3-9.7-9.7-9.7h-28.2  c-5.3,0-9.7,4.3-9.7,9.7c0,3.3,1.6,6.2,4.1,7.9v88.1c-2.5,1.8-4.1,4.7-4.1,7.9c0,3.3,1.6,6.2,4.1,7.9v10.5  c0,26.7,19.6,49.4,45.9,53.3c1.7,2.6,4.7,4.4,8.1,4.4c3.4,0,6.4-1.7,8.1-4.4c26.2-4,45.9-26.6,45.9-53.3v-10.2  c2.7-1.7,4.6-4.8,4.6-8.2c0-3.5-1.8-6.5-4.6-8.2v-2.4c0-8.5,6.9-15.5,15.5-15.5h28.3c1.7,2.9,4.8,4.8,8.4,4.8c3.5,0,6.5-1.9,8.3-4.6  V752.1z M871.6,708.6h28.2c2.1,0,3.8,1.7,3.8,3.8c0,2.1-1.7,3.7-3.7,3.8h-28.3c-2.1,0-3.7-1.7-3.7-3.8  C867.9,710.2,869.6,708.6,871.6,708.6z M898.6,722v84.6H872V722H898.6z M867.9,816.3c0-2.1,1.7-3.8,3.8-3.8h28.2  c2.1,0,3.8,1.7,3.8,3.8c0,2.1-1.7,3.8-3.8,3.8h-28.2C869.6,820,867.9,818.4,867.9,816.3z M910.3,854.5v27.2  c-22.1-4.5-38.3-24.1-38.3-47V826h26.6v8.7c0,8.1,4.6,15.5,11.7,19.1C910.3,854,910.3,854.3,910.3,854.5z M923.8,882.7  c0,2.1-1.7,3.8-3.8,3.8c-2.1,0-3.8-1.7-3.8-3.8v-28.2c0-2.1,1.7-3.8,3.8-3.8c2.1,0,3.8,1.7,3.8,3.8V882.7z M968,834.7  c0,22.9-16.2,42.5-38.3,47v-27.2c0-0.2,0-0.5,0-0.7c7.1-3.6,11.7-11,11.7-19.1V826H968V834.7z M968.8,820h-28.2  c-2.1,0-3.8-1.7-3.8-3.8c0-2.1,1.7-3.8,3.8-3.8h28.2c2.1,0,3.8,1.7,3.8,3.8C972.6,818.4,970.9,820,968.8,820z M1016.4,784.2h-27  c-11.8,0-21.4,9.6-21.4,21.4v0.9h-26.6v-0.9c0-26.5,21.5-48,48-48h27V784.2z M1029.8,785.3c0,2.1-1.7,3.8-3.8,3.8  c-2.1,0-3.8-1.7-3.8-3.8v-28.2c0-2.1,1.7-3.8,3.8-3.8c2.1,0,3.8,1.7,3.8,3.8V785.3z"/>
<rect x="0" y="703.1" fill="#343434" width="816.5" height="7.9"/>
<rect x="1098.2" y="703.1" fill="#343434" width="821.8" height="7.9"/>

</svg>